<svg width="161" height="42" viewBox="0 0 161 42" fill="none" xmlns="http://www.w3.org/2000/svg">
<g clip-path="url(#clip0_116_6110)">
<path d="M17.9607 0H0.333008V42L17.9607 0Z" fill="#FA0C00"/>
<path d="M30.3623 0H47.967V42L30.3623 0Z" fill="#FA0C00"/>
<path d="M24.1617 15.4797L35.3814 42H28.0202L24.667 33.5566H16.4561L24.1617 15.4797Z" fill="#FA0C00"/>
<path d="M76.7251 26.7092L78.8036 32.6471C78.8726 32.7958 78.9759 32.8645 79.1597 32.8645H83.156C83.3742 32.8645 83.4087 32.7615 83.3742 32.5441L75.1174 9.69638C75.0829 9.51333 75.0484 9.479 74.8647 9.479H69.9037C69.7659 9.479 69.6855 9.58197 69.6855 9.73071C69.6166 10.932 69.5133 11.2981 69.364 11.6528L62.0028 32.5098C61.9684 32.7615 62.0488 32.8645 62.2555 32.8645H65.8269C66.0451 32.8645 66.1485 32.7958 66.2289 32.5784L68.1926 26.7092H76.7251ZM69.3295 22.8307C70.409 19.5814 71.833 15.4169 72.4072 13.0372H72.4416C73.1536 15.5313 74.8303 20.4738 75.5882 22.8307H69.3295Z" fill="#FA0C00"/>
<path d="M93.9897 33.2192C96.1372 33.2192 98.4225 32.8303 100.742 31.8349C100.926 31.7662 100.96 31.6862 100.96 31.5145C100.892 30.8738 100.811 29.9471 100.811 29.2378V7.72864C100.811 7.59135 100.811 7.52271 100.639 7.52271H96.7459C96.5966 7.52271 96.5277 7.59135 96.5277 7.77441V15.0623C95.919 14.9937 95.4941 14.9594 94.9888 14.9594C88.7072 14.9594 84.8486 19.0896 84.8486 24.2495C84.8486 30.2331 88.8105 33.2192 93.9897 33.2192ZM96.5277 29.2378C95.8846 29.4437 95.1726 29.5238 94.4491 29.5238C91.6011 29.5238 89.2699 27.9221 89.2699 24.0321C89.2699 20.5884 91.67 18.5519 94.851 18.5519C95.4941 18.5519 96.0568 18.6205 96.5277 18.8036V29.2378Z" fill="#FA0C00"/>
<path d="M113.38 14.9595C108.017 14.9595 104.698 19.0554 104.698 24.1123C104.698 28.6315 107.34 33.2193 113.3 33.2193C118.341 33.2193 121.878 29.5239 121.878 23.9979C121.878 19.124 118.881 14.9595 113.38 14.9595ZM113.162 18.552C116.194 18.552 117.48 21.1491 117.48 24.1123C117.48 27.7734 115.585 29.5925 113.38 29.5925C110.658 29.5925 109.051 27.3158 109.051 24.0322C109.051 20.6571 110.762 18.552 113.162 18.552Z" fill="#FA0C00"/>
<path d="M125.902 7.52271C125.753 7.52271 125.649 7.59135 125.649 7.77441V32.1209C125.649 32.2239 125.753 32.4069 125.902 32.4413C127.613 32.9675 129.405 33.2192 131.254 33.2192C136.548 33.2192 141.692 29.9471 141.692 23.3571C141.692 18.5862 138.408 14.9594 133.263 14.9594C132.08 14.9594 130.978 15.1424 130.013 15.4628L129.967 7.80873C129.967 7.55703 129.898 7.52271 129.646 7.52271H125.902ZM137.294 23.7918C137.294 27.739 134.584 29.5924 131.655 29.5924C131.047 29.5924 130.507 29.5581 130.013 29.4094V19.0209C130.576 18.8036 131.254 18.6205 132.505 18.6205C135.33 18.6205 137.294 20.4053 137.294 23.7918Z" fill="#FA0C00"/>
<path d="M156.22 25.0731C157.966 25.0731 159.401 25.0388 159.895 24.9244C160.079 24.89 160.148 24.8214 160.182 24.6727C160.286 24.2837 160.332 23.4714 160.332 22.476C160.332 19.0894 158.288 14.9592 153.005 14.9592C147.608 14.9592 144.61 19.3411 144.61 24.2837C144.61 28.6656 146.93 33.2191 153.43 33.2191C155.864 33.2191 157.438 32.8301 158.793 32.1894C158.931 32.1208 159 32.0064 159 31.8004V28.8372C159 28.6656 158.896 28.6313 158.793 28.6999C157.438 29.2719 155.968 29.558 154.36 29.558C150.72 29.558 149.066 27.5558 148.963 25.0731H156.22ZM148.963 22.0069C149.25 20.2679 150.352 18.3801 152.821 18.3801C155.543 18.3801 156.255 20.6569 156.255 21.6866C156.255 21.7209 156.255 21.8696 156.255 21.9726C156.106 22.0069 155.646 22.0069 154.291 22.0069H148.963Z" fill="#FA0C00"/>
</g>
<defs>
<clipPath id="clip0_116_6110">
<rect width="160" height="42" fill="white" transform="translate(0.333008)"/>
</clipPath>
</defs>
</svg>
