<svg width="80" height="80" viewBox="0 0 80 80" fill="none" xmlns="http://www.w3.org/2000/svg">
<rect width="80" height="80" rx="8" fill="white"/>
<path d="M24.8 17.2H55.364C60.1138 17.2 64 21.0862 64 25.836V55.364C64 60.1137 60.1138 64 55.364 64H24.6361C19.8862 64 16 60.1137 16 55.3639V26C16 21.1499 19.9501 17.2 24.8 17.2Z" fill="#00D8FF"/>
<path d="M25.2 19.2H54.9639C58.8499 19.2 62 22.35 62 26.236V54.9639C62 58.8498 58.8498 61.9999 54.9639 61.9999H25.036C21.1501 61.9999 18 58.8497 18 54.9639V26.4C18 22.3999 21.2 19.2 25.2 19.2Z" fill="#041A1E"/>
<path d="M48.298 42.5001C49.3172 42.5001 50.1434 41.6739 50.1434 40.6547C50.1434 39.6355 49.3172 38.8093 48.298 38.8093C47.2788 38.8093 46.4526 39.6355 46.4526 40.6547C46.4526 41.6739 47.2788 42.5001 48.298 42.5001Z" fill="#CAF0FF"/>
<path d="M48.3421 36.5534C46.1383 36.5534 44.3453 38.3464 44.3453 40.5502C44.3453 41.6621 44.8021 42.6689 45.5374 43.3941L43.0119 45.8102C42.3784 45.1332 41.5232 44.6666 40.5628 44.5279L40.5508 36.7C42.692 36.5226 44.3804 34.7245 44.3804 32.5383C44.3804 30.235 42.5065 28.3611 40.2031 28.3611C37.8997 28.3611 36.0259 30.235 36.0259 32.5383C36.0259 33.6706 36.4794 34.6986 37.2136 35.4517L34.805 37.7491C34.0718 37.1133 33.1165 36.7271 32.0722 36.7271C29.7689 36.7271 27.895 38.601 27.895 40.9044C27.895 43.2077 29.7689 45.0817 32.0722 45.0817C34.3756 45.0817 36.2495 43.2078 36.2495 40.9044C36.2495 39.8139 35.829 38.8199 35.1421 38.0753L37.5592 35.7697C38.2506 36.3364 39.1267 36.685 40.082 36.7124L40.0939 44.4875C40.0503 44.4862 40.0069 44.4842 39.963 44.4842C37.6596 44.4842 35.7858 46.3581 35.7858 48.6615C35.7858 50.965 37.6596 52.8388 39.963 52.8388C42.2663 52.8388 44.1402 50.965 44.1402 48.6615C44.1402 47.7285 43.8326 46.8661 43.3138 46.1701L45.8914 43.704C46.5687 44.2315 47.4189 44.5468 48.3419 44.5468C50.5457 44.5468 52.3386 42.7539 52.3386 40.5501C52.3388 38.3464 50.5459 36.5534 48.3421 36.5534ZM35.7809 40.9046C35.7809 42.9495 34.1173 44.6131 32.0724 44.6131C30.0275 44.6131 28.364 42.9495 28.364 40.9046C28.364 38.8597 30.0275 37.1961 32.0724 37.1961C33.0283 37.1961 33.9008 37.5597 34.5591 38.1558L34.7969 38.405L34.8035 38.3987C35.4099 39.0593 35.7809 39.9393 35.7809 40.9046ZM36.4948 32.5384C36.4948 30.4935 38.1584 28.8299 40.2033 28.8299C42.2482 28.8299 43.9118 30.4935 43.9118 32.5384C43.9118 34.5833 42.2482 36.2469 40.2033 36.2469C38.1584 36.2469 36.4948 34.5833 36.4948 32.5384ZM43.6717 48.6616C43.6717 50.7066 42.0081 52.3702 39.9633 52.3702C37.9184 52.3702 36.2548 50.7066 36.2548 48.6616C36.2548 46.6166 37.9184 44.9531 39.9633 44.9531C42.0081 44.9531 43.6717 46.6166 43.6717 48.6616ZM48.3421 43.6094C46.6552 43.6094 45.2828 42.237 45.2828 40.5502C45.2828 38.8633 46.6552 37.4909 48.3421 37.4909C50.0289 37.4909 51.4013 38.8633 51.4013 40.5502C51.4013 42.237 50.029 43.6094 48.3421 43.6094Z" fill="#CAF0FF"/>
</svg>
