<svg width="80" height="80" viewBox="0 0 80 80" fill="none" xmlns="http://www.w3.org/2000/svg">
<rect width="80" height="80" rx="8" fill="white"/>
<g clip-path="url(#clip0_116_17621)">
<path d="M67.9614 12.7378H12.0391V67.4951H67.9614V12.7378Z" fill="url(#paint0_radial_116_17621)"/>
<path d="M34.6407 40.2331H32.4271V54.7729C33.1028 55.1224 33.9183 55.402 34.6407 55.6583V40.2331ZM38.7183 39.301V56.4505C39.0213 56.4738 39.4873 56.6136 39.7902 56.6136C40.1863 56.6136 40.5358 56.6136 40.9319 56.5903V39.301H38.7183ZM51.4174 51.4641C52.2096 50.6253 53.0251 49.6234 53.631 48.6447V37.5535H51.4174V51.4641ZM27.1611 41.1651L32.264 35.27L37.1106 37.0874L47.4795 29.6544L52.6989 34.5942L55.3319 32.4971L54.9358 31.635L52.7455 33.4758L47.596 28.6758L37.064 36.202L32.1708 34.3146L26.7183 40.4661L23.3164 41.2583V42.0505L27.1611 41.1651ZM28.2329 44.6602H26.0193V48.9476C26.6251 49.8797 27.4407 50.7651 28.2329 51.5573V44.6602ZM47.3397 34.8738H45.1261V55.5884C45.8484 55.3321 46.664 55.0292 47.3397 54.6564V34.8738Z" fill="#E2D8FF"/>
<path fill-rule="evenodd" clip-rule="evenodd" d="M15.9531 39.9997C15.9531 53.2813 26.7182 64.0463 39.9997 64.0463C53.2813 64.0463 64.0463 53.2813 64.0463 39.9997C64.0463 26.7182 53.2813 15.9531 39.9997 15.9531C26.7182 15.9531 15.9531 26.7182 15.9531 39.9997ZM18.423 39.9997C18.423 28.0696 28.0929 18.3997 39.9997 18.3997C51.9065 18.3997 61.5764 28.0696 61.5764 39.9997C61.5764 51.9298 51.9065 61.5997 39.9997 61.5997C28.0929 61.5997 18.423 51.9298 18.423 39.9997Z" fill="#9F7FFF"/>
</g>
<defs>
<radialGradient id="paint0_radial_116_17621" cx="0" cy="0" r="1" gradientUnits="userSpaceOnUse" gradientTransform="translate(34.3342 30.9777) scale(36.5507 36.6211)">
<stop stop-color="#33284E"/>
<stop offset="0.7669" stop-color="#130732"/>
</radialGradient>
<clipPath id="clip0_116_17621">
<rect x="16" y="16" width="48" height="48" rx="24" fill="white"/>
</clipPath>
</defs>
</svg>
