<svg width="80" height="80" viewBox="0 0 80 80" fill="none" xmlns="http://www.w3.org/2000/svg">
<rect width="80" height="80" rx="8" fill="white"/>
<g clip-path="url(#clip0_116_17734)">
<path d="M29.5734 36.0367C29.5734 36.6328 29.637 37.1161 29.7483 37.4706C29.8754 37.825 30.0343 38.2117 30.2569 38.6306C30.3363 38.7594 30.3681 38.8883 30.3681 39.0011C30.3681 39.1622 30.2728 39.3233 30.0661 39.4844L29.0648 40.1611C28.9218 40.2578 28.7787 40.3061 28.6516 40.3061C28.4926 40.3061 28.3337 40.2256 28.1747 40.0806C27.9522 39.8389 27.7615 39.5811 27.6026 39.3233C27.4436 39.0494 27.2847 38.7433 27.1098 38.3728C25.8701 39.855 24.3125 40.5961 22.437 40.5961C21.1019 40.5961 20.037 40.2094 19.2582 39.4361C18.4794 38.6628 18.082 37.6317 18.082 36.3428C18.082 34.9733 18.5589 33.8617 19.5284 33.0239C20.4979 32.1861 21.7853 31.7672 23.4224 31.7672C23.9628 31.7672 24.5191 31.8156 25.1072 31.8961C25.6953 31.9767 26.2993 32.1056 26.935 32.2506V31.0744C26.935 29.85 26.6807 28.9961 26.188 28.4967C25.6794 27.9972 24.8211 27.7556 23.5973 27.7556C23.041 27.7556 22.4688 27.82 21.8807 27.965C21.2926 28.11 20.7204 28.2872 20.1642 28.5128C19.9098 28.6256 19.7191 28.69 19.6079 28.7222C19.4966 28.7544 19.4171 28.7706 19.3536 28.7706C19.131 28.7706 19.0198 28.6094 19.0198 28.2711V27.4817C19.0198 27.2239 19.0516 27.0306 19.131 26.9178C19.2105 26.805 19.3536 26.6922 19.5761 26.5794C20.1324 26.2894 20.7999 26.0478 21.5787 25.8544C22.3575 25.645 23.184 25.5483 24.0582 25.5483C25.9496 25.5483 27.3324 25.9833 28.2224 26.8533C29.0966 27.7233 29.5416 29.0444 29.5416 30.8167V36.0367H29.5734ZM23.1204 38.4856C23.6449 38.4856 24.1853 38.3889 24.7575 38.1956C25.3297 38.0022 25.8383 37.6478 26.2675 37.1644C26.5218 36.8583 26.7125 36.52 26.8079 36.1333C26.9032 35.7467 26.9668 35.2794 26.9668 34.7317V34.055C26.5059 33.9422 26.0132 33.8456 25.5045 33.7811C24.9959 33.7167 24.5032 33.6844 24.0105 33.6844C22.9456 33.6844 22.1668 33.8939 21.6423 34.3289C21.1178 34.7639 20.8635 35.3761 20.8635 36.1817C20.8635 36.9389 21.0542 37.5028 21.4516 37.8894C21.833 38.2922 22.3893 38.4856 23.1204 38.4856ZM35.8834 40.2256C35.5973 40.2256 35.4065 40.1772 35.2794 40.0644C35.1522 39.9678 35.041 39.7422 34.9456 39.4361L31.2105 26.9822C31.1151 26.66 31.0675 26.4506 31.0675 26.3378C31.0675 26.08 31.1946 25.935 31.4489 25.935H33.0065C33.3085 25.935 33.5151 25.9833 33.6264 26.0961C33.7536 26.1928 33.8489 26.4183 33.9443 26.7244L36.6145 37.39L39.094 26.7244C39.1734 26.4022 39.2688 26.1928 39.3959 26.0961C39.5231 25.9994 39.7456 25.935 40.0317 25.935H41.3032C41.6052 25.935 41.8118 25.9833 41.939 26.0961C42.0661 26.1928 42.1774 26.4183 42.241 26.7244L44.7522 37.5189L47.5019 26.7244C47.5973 26.4022 47.7085 26.1928 47.8198 26.0961C47.9469 25.9994 48.1536 25.935 48.4396 25.935H49.9178C50.1721 25.935 50.3151 26.0639 50.3151 26.3378C50.3151 26.4183 50.2992 26.4989 50.2834 26.5956C50.2675 26.6922 50.2357 26.8211 50.1721 26.9983L46.3416 39.4522C46.2463 39.7744 46.135 39.9839 46.0079 40.0806C45.8807 40.1772 45.6741 40.2417 45.4039 40.2417H44.037C43.735 40.2417 43.5284 40.1933 43.4012 40.0806C43.2741 39.9678 43.1628 39.7583 43.0992 39.4361L40.6357 29.0444L38.188 39.42C38.1085 39.7422 38.0132 39.9517 37.886 40.0644C37.7589 40.1772 37.5363 40.2256 37.2502 40.2256H35.8834ZM56.3072 40.6606C55.4807 40.6606 54.6542 40.5639 53.8595 40.3706C53.0648 40.1772 52.4449 39.9678 52.0317 39.7261C51.7774 39.5811 51.6026 39.42 51.539 39.275C51.4754 39.13 51.4436 38.9689 51.4436 38.8239V38.0022C51.4436 37.6639 51.5708 37.5028 51.8092 37.5028C51.9045 37.5028 51.9999 37.5189 52.0953 37.5511C52.1906 37.5833 52.3337 37.6478 52.4926 37.7122C53.033 37.9539 53.6211 38.1472 54.241 38.2761C54.8767 38.405 55.4966 38.4694 56.1324 38.4694C57.1337 38.4694 57.9125 38.2922 58.4529 37.9378C58.9933 37.5833 59.2794 37.0678 59.2794 36.4072C59.2794 35.9561 59.1363 35.5856 58.8502 35.2794C58.5641 34.9733 58.0238 34.6994 57.2449 34.4417L54.9403 33.7167C53.78 33.3461 52.9218 32.7983 52.3973 32.0733C51.8728 31.3644 51.6026 30.575 51.6026 29.7372C51.6026 29.0606 51.7456 28.4644 52.0317 27.9489C52.3178 27.4333 52.6992 26.9822 53.1761 26.6278C53.6529 26.2572 54.1933 25.9833 54.829 25.79C55.4648 25.5967 56.1324 25.5161 56.8317 25.5161C57.1814 25.5161 57.5469 25.5322 57.8966 25.5806C58.2622 25.6289 58.5959 25.6933 58.9297 25.7578C59.2476 25.8383 59.5496 25.9189 59.8357 26.0156C60.1218 26.1122 60.3443 26.2089 60.5032 26.3056C60.7257 26.4344 60.8847 26.5633 60.98 26.7083C61.0754 26.8372 61.1231 27.0144 61.1231 27.24V27.9972C61.1231 28.3356 60.9959 28.5128 60.7575 28.5128C60.6304 28.5128 60.4237 28.4483 60.1535 28.3194C59.2476 27.9006 58.2304 27.6911 57.1019 27.6911C56.1959 27.6911 55.4807 27.8361 54.988 28.1422C54.4953 28.4483 54.241 28.9156 54.241 29.5761C54.241 30.0272 54.3999 30.4139 54.7178 30.72C55.0357 31.0261 55.6238 31.3322 56.4661 31.6061L58.7231 32.3311C59.8675 32.7017 60.6939 33.2172 61.1867 33.8778C61.6794 34.5383 61.9178 35.2956 61.9178 36.1333C61.9178 36.8261 61.7747 37.4544 61.5045 38.0022C61.2184 38.55 60.837 39.0333 60.3443 39.42C59.8516 39.8228 59.2635 40.1128 58.58 40.3222C57.8648 40.5478 57.1178 40.6606 56.3072 40.6606Z" fill="#252F3E"/>
<path d="M59.3106 48.4901C54.0814 52.4051 46.4841 54.4834 39.9516 54.4834C30.7966 54.4834 22.5476 51.0518 16.3172 45.3484C15.8245 44.8973 16.2695 44.2851 16.8576 44.6395C23.5966 48.6029 31.9092 51.0034 40.5079 51.0034C46.3092 51.0034 52.6827 49.779 58.5476 47.2657C59.4218 46.8629 60.1688 47.8457 59.3106 48.4901Z" fill="#FF9900"/>
<path d="M61.488 45.977C60.8204 45.107 57.0694 45.5581 55.3688 45.7676C54.8602 45.832 54.7807 45.3809 55.2416 45.0426C58.2297 42.9159 63.141 43.5281 63.7131 44.237C64.2853 44.962 63.5542 49.9403 60.7568 52.3248C60.3277 52.6953 59.9145 52.502 60.1052 52.0187C60.741 50.4237 62.1555 46.8309 61.488 45.977Z" fill="#FF9900"/>
</g>
<defs>
<clipPath id="clip0_116_17734">
<rect width="48" height="29" fill="white" transform="translate(16 25.5)"/>
</clipPath>
</defs>
</svg>
