<svg width="80" height="80" viewBox="0 0 80 80" fill="none" xmlns="http://www.w3.org/2000/svg">
<rect width="80" height="80" rx="8" fill="white"/>
<path d="M32.6672 19.272H45.6862L32.1712 59.3154C32.0324 59.7269 31.7679 60.0845 31.4151 60.3378C31.0623 60.591 30.639 60.7273 30.2047 60.7276H20.0727C19.7437 60.7275 19.4194 60.6492 19.1266 60.4991C18.8338 60.3489 18.581 60.1311 18.3891 59.8638C18.1972 59.5966 18.0717 59.2875 18.0229 58.9621C17.9741 58.6367 18.0036 58.3043 18.1087 57.9925L30.7002 20.684C30.8391 20.2723 31.1036 19.9146 31.4564 19.6612C31.8094 19.408 32.2329 19.2718 32.6672 19.272Z" fill="url(#paint0_linear_116_17741)"/>
<path d="M51.5859 46.1309H30.9409C30.749 46.1306 30.5615 46.1882 30.4027 46.296C30.244 46.4039 30.1215 46.5571 30.051 46.7357C29.9806 46.9142 29.9656 47.1098 30.0079 47.297C30.0503 47.4842 30.148 47.6543 30.2884 47.7852L43.5545 60.1673C43.9408 60.5275 44.4493 60.7279 44.9775 60.7279H56.6674L51.5859 46.1309Z" fill="#0078D4"/>
<path d="M32.6685 19.272C32.2293 19.2703 31.8011 19.4091 31.4464 19.6681C31.0917 19.9271 30.8291 20.2927 30.697 20.7115L18.1255 57.9585C18.0132 58.2714 17.978 58.6068 18.0228 58.9362C18.0675 59.2657 18.1909 59.5795 18.3826 59.8511C18.5744 60.1227 18.8286 60.3441 19.1239 60.4967C19.4194 60.6491 19.7471 60.7283 20.0795 60.7276H30.473C30.8601 60.6583 31.2218 60.4876 31.5215 60.233C31.821 59.9782 32.0476 59.6485 32.178 59.2775L34.685 51.8891L43.6401 60.2416C44.0153 60.5519 44.4861 60.7236 44.973 60.7276H56.6195L51.5116 46.1306L36.621 46.1339L45.7345 19.272H32.6685Z" fill="url(#paint1_linear_116_17741)"/>
<path d="M49.2978 20.682C49.1591 20.271 48.8949 19.9139 48.5425 19.6609C48.1902 19.4079 47.7674 19.2719 47.3337 19.272H32.8242C33.2579 19.272 33.6807 19.4081 34.0331 19.661C34.3854 19.914 34.6495 20.271 34.7882 20.682L47.3802 57.9921C47.4856 58.3038 47.5151 58.6362 47.4664 58.9617C47.4177 59.2872 47.2922 59.5965 47.1001 59.8638C46.9082 60.1312 46.6554 60.349 46.3626 60.4993C46.0698 60.6496 45.7454 60.728 45.4163 60.7281H59.9262C60.2553 60.7278 60.5796 60.6494 60.8723 60.4991C61.1651 60.3488 61.4179 60.131 61.6098 59.8636C61.8016 59.5962 61.9271 59.2871 61.9758 58.9617C62.0245 58.6362 61.995 58.3038 61.8897 57.9921L49.2978 20.682Z" fill="url(#paint2_linear_116_17741)"/>
<defs>
<linearGradient id="paint0_linear_116_17741" x1="37.4122" y1="22.344" x2="23.8917" y2="62.2871" gradientUnits="userSpaceOnUse">
<stop stop-color="#114A8B"/>
<stop offset="1" stop-color="#0669BC"/>
</linearGradient>
<linearGradient id="paint1_linear_116_17741" x1="41.637" y1="40.9586" x2="38.5095" y2="42.016" gradientUnits="userSpaceOnUse">
<stop stop-opacity="0.3"/>
<stop offset="0.071" stop-opacity="0.2"/>
<stop offset="0.321" stop-opacity="0.1"/>
<stop offset="0.623" stop-opacity="0.05"/>
<stop offset="1" stop-opacity="0"/>
</linearGradient>
<linearGradient id="paint2_linear_116_17741" x1="39.9177" y1="21.179" x2="54.7593" y2="60.7194" gradientUnits="userSpaceOnUse">
<stop stop-color="#3CCBF4"/>
<stop offset="1" stop-color="#2892DF"/>
</linearGradient>
</defs>
</svg>
