<svg width="80" height="80" viewBox="0 0 80 80" fill="none" xmlns="http://www.w3.org/2000/svg">
<rect width="80" height="80" rx="8" fill="white"/>
<g clip-path="url(#clip0_116_17674)">
<path d="M41.2901 43.3264H47.3441C49.0661 43.3264 50.1561 42.3784 50.1561 40.8564C50.1561 39.4224 49.0661 38.3884 47.3441 38.3884H41.2901C41.0901 38.3884 40.9161 38.5604 40.9161 38.7324V42.9824C40.9461 43.1824 41.0881 43.3264 41.2901 43.3264ZM41.2901 53.1184H47.5461C49.4681 53.1184 50.6161 52.1424 50.6161 50.4184C50.6161 48.9264 49.5261 47.7184 47.5461 47.7184H41.2901C41.0901 47.7184 40.9161 47.8924 40.9161 48.0644V52.7444C40.9461 52.9744 41.0881 53.1184 41.2901 53.1184ZM63.4401 16.1064L45.5341 33.9664H48.4621C53.0241 33.9664 55.7221 36.8364 55.7221 39.9664C55.7221 42.4364 54.0581 44.2464 52.2781 45.0484C51.9921 45.1644 51.9921 45.5664 52.3061 45.6804C54.3721 46.4844 55.8361 48.6404 55.8361 51.1644C55.8361 54.7244 53.4561 57.5684 48.8361 57.5684H36.1521C35.9521 57.5684 35.7781 57.3964 35.7781 57.2244V43.7004L16.1241 63.2804C15.8641 63.5404 16.0381 63.9984 16.4101 63.9984H63.6721C63.7556 63.9974 63.8354 63.9637 63.8944 63.9047C63.9534 63.8457 63.9871 63.7659 63.9881 63.6824V16.3644C64.0741 16.0484 63.6721 15.8764 63.4421 16.1044L63.4401 16.1064Z" fill="black"/>
</g>
<defs>
<clipPath id="clip0_116_17674">
<rect width="48" height="48" fill="white" transform="translate(16 16)"/>
</clipPath>
</defs>
</svg>
