<svg width="41" height="40" viewBox="0 0 41 40" fill="none" xmlns="http://www.w3.org/2000/svg">
<path d="M13.724 29.9037H18.5319V28.4295H15.1986V26.5704H18.5319V21.7629H13.724V23.237H17.0573V25.0962H13.724V29.9037ZM25.519 29.9037H26.9936V21.7629H25.519V25.0962H23.6602V21.7629H22.1857V26.5704H25.519V29.9037ZM34.9419 18.2883V31.5704C34.9419 32.4123 34.6502 33.125 34.0669 33.7083C33.4836 34.2916 32.7711 34.5833 31.9294 34.5833H8.78816C7.94649 34.5833 7.23399 34.2916 6.65066 33.7083C6.06733 33.125 5.77566 32.4123 5.77566 31.5704V18.2562C5.10455 17.7051 4.6008 16.9898 4.26441 16.1104C3.92774 15.2312 3.9208 14.282 4.24358 13.2629L5.92941 7.75621C6.15163 7.05538 6.52872 6.49024 7.06066 6.06079C7.59288 5.63135 8.22858 5.41663 8.96774 5.41663H31.7177C32.4572 5.41663 33.0886 5.62177 33.6119 6.03204C34.1355 6.44232 34.5169 7.00649 34.7561 7.72454L36.474 13.2629C36.7968 14.282 36.7898 15.228 36.4532 16.1008C36.1168 16.9738 35.613 17.703 34.9419 18.2883ZM24.0257 17.0833C24.9359 17.0833 25.6202 16.805 26.0786 16.2483C26.5369 15.6916 26.7244 15.0938 26.6411 14.455L25.6282 7.91663H21.6086V14.5C21.6086 15.2008 21.8458 15.8066 22.3202 16.3175C22.7947 16.828 23.3632 17.0833 24.0257 17.0833ZM16.5257 17.0833C17.2926 17.0833 17.9148 16.828 18.3923 16.3175C18.8701 15.8066 19.109 15.2008 19.109 14.5V7.91663H15.0894L14.0769 14.5191C13.9869 15.1111 14.1727 15.6865 14.6344 16.2454C15.0961 16.804 15.7265 17.0833 16.5257 17.0833ZM9.10899 17.0833C9.72649 17.0833 10.2575 16.868 10.7019 16.4375C11.1464 16.0069 11.4209 15.4658 11.5257 14.8141L12.5061 7.91663H8.96774C8.78608 7.91663 8.64191 7.95663 8.53524 8.03663C8.4283 8.1169 8.34816 8.23718 8.29483 8.39746L6.69191 13.8204C6.47191 14.5362 6.57566 15.259 7.00316 15.9887C7.43038 16.7184 8.13233 17.0833 9.10899 17.0833ZM31.609 17.0833C32.5107 17.0833 33.2008 16.7291 33.6794 16.0208C34.158 15.3125 34.2734 14.579 34.0257 13.8204L32.3394 8.36538C32.2861 8.2051 32.2061 8.09024 32.0994 8.02079C31.9925 7.95135 31.8482 7.91663 31.6665 7.91663H28.2115L29.1919 14.8141C29.2966 15.4658 29.5712 16.0069 30.0157 16.4375C30.4601 16.868 30.9912 17.0833 31.609 17.0833ZM8.78816 32.0833H31.9294C32.0789 32.0833 32.2016 32.0352 32.2977 31.9391C32.3941 31.843 32.4423 31.7201 32.4423 31.5704V19.4358C32.2607 19.5022 32.1089 19.5433 31.9869 19.5591C31.8652 19.5752 31.7393 19.5833 31.609 19.5833C30.859 19.5833 30.1993 19.4476 29.6298 19.1762C29.0604 18.9048 28.5084 18.47 27.974 17.8716C27.5062 18.393 26.9529 18.8087 26.314 19.1187C25.6751 19.4284 24.9465 19.5833 24.1282 19.5833C23.4209 19.5833 22.7543 19.4363 22.1282 19.1425C21.5021 18.8488 20.9123 18.4252 20.359 17.8716C19.844 18.4252 19.2607 18.8488 18.609 19.1425C17.957 19.4363 17.2968 19.5833 16.6282 19.5833C15.8759 19.5833 15.1708 19.447 14.5127 19.1745C13.8547 18.902 13.2757 18.4677 12.7757 17.8716C12.0745 18.5725 11.4286 19.033 10.8377 19.2533C10.2472 19.4733 9.67094 19.5833 9.10899 19.5833C8.97844 19.5833 8.84372 19.5752 8.70483 19.5591C8.56594 19.5433 8.42274 19.5022 8.27524 19.4358V31.5704C8.27524 31.7201 8.32344 31.843 8.41983 31.9391C8.51594 32.0352 8.63872 32.0833 8.78816 32.0833Z" fill="#1D252D"/>
</svg>
