<svg width="40" height="40" viewBox="0 0 40 40" fill="none" xmlns="http://www.w3.org/2000/svg">
<path d="M18.9745 34.1667V31.6667H31.1537C31.2926 31.6667 31.4129 31.6239 31.5145 31.5384C31.6159 31.4531 31.6666 31.341 31.6666 31.2021V19.545C31.6666 16.3589 30.5266 13.6767 28.2466 11.4984C25.9669 9.32004 23.218 8.23087 20 8.23087C16.7819 8.23087 14.033 9.32004 11.7533 11.4984C9.47329 13.6767 8.33329 16.3589 8.33329 19.545V29.3588H7.08329C6.28413 29.3588 5.59829 29.0806 5.02579 28.5242C4.45301 27.9675 4.16663 27.2896 4.16663 26.4905V23.2534C4.16663 22.7128 4.32051 22.2175 4.62829 21.7675C4.93607 21.3178 5.33774 20.9563 5.83329 20.683L5.91038 18.5546C6.04704 16.7405 6.51815 15.0599 7.32371 13.513C8.12927 11.966 9.16232 10.6193 10.4229 9.47296C11.6837 8.32657 13.1388 7.43337 14.7883 6.79337C16.438 6.15337 18.1752 5.83337 20 5.83337C21.8247 5.83337 23.5576 6.15337 25.1987 6.79337C26.8398 7.43337 28.295 8.32226 29.5641 9.46004C30.8333 10.5978 31.8663 11.9402 32.6633 13.4871C33.4602 15.0343 33.9357 16.7149 34.0895 18.5288L34.1666 20.6155C34.6516 20.8441 35.0507 21.171 35.3637 21.5963C35.6768 22.0216 35.8333 22.4959 35.8333 23.0192V26.7405C35.8333 27.2638 35.6768 27.7381 35.3637 28.1634C35.0507 28.5887 34.6516 28.9156 34.1666 29.1442V31.2021C34.1666 32.0224 33.8723 32.7216 33.2837 33.2996C32.6948 33.8777 31.9848 34.1667 31.1537 34.1667H18.9745ZM15.3204 22.9488C14.9123 22.9488 14.5645 22.8105 14.277 22.5338C13.9898 22.2571 13.8462 21.9146 13.8462 21.5063C13.8462 21.0982 13.9898 20.7532 14.277 20.4713C14.5645 20.1891 14.9123 20.048 15.3204 20.048C15.7287 20.048 16.0765 20.1891 16.3637 20.4713C16.6512 20.7532 16.795 21.0982 16.795 21.5063C16.795 21.9146 16.6512 22.2571 16.3637 22.5338C16.0765 22.8105 15.7287 22.9488 15.3204 22.9488ZM24.6795 22.9488C24.2712 22.9488 23.9234 22.8105 23.6362 22.5338C23.3487 22.2571 23.205 21.9146 23.205 21.5063C23.205 21.0982 23.3487 20.7532 23.6362 20.4713C23.9234 20.1891 24.2712 20.048 24.6795 20.048C25.0876 20.048 25.4354 20.1891 25.7229 20.4713C26.0101 20.7532 26.1537 21.0982 26.1537 21.5063C26.1537 21.9146 26.0101 22.2571 25.7229 22.5338C25.4354 22.8105 25.0876 22.9488 24.6795 22.9488ZM10.6187 20.3334C10.4457 17.6134 11.2918 15.2859 13.157 13.3509C15.0223 11.4162 17.3311 10.4488 20.0833 10.4488C22.3952 10.4488 24.4352 11.1641 26.2033 12.5946C27.9716 14.0252 29.0448 15.8771 29.4229 18.1505C27.0554 18.1227 24.8679 17.501 22.8604 16.2855C20.8529 15.0696 19.3118 13.403 18.237 11.2855C17.814 13.358 16.9273 15.1902 15.577 16.7821C14.2265 18.3741 12.5737 19.5578 10.6187 20.3334Z" fill="#1D252D"/>
</svg>
