<svg width="41" height="40" viewBox="0 0 41 40" fill="none" xmlns="http://www.w3.org/2000/svg">
<path d="M19.4806 27.6921H21.8523L22.256 25.4167C22.7391 25.2778 23.1557 25.1132 23.506 24.923C23.8566 24.733 24.2006 24.4787 24.5381 24.16L26.7306 24.91L27.9323 22.8784L26.1918 21.4038C26.3116 20.9082 26.3714 20.4403 26.3714 20C26.3714 19.5598 26.3116 19.0918 26.1918 18.5963L27.9323 17.1217L26.7306 15.09L24.5381 15.84C24.2006 15.5214 23.8566 15.2671 23.506 15.0771C23.1557 14.8868 22.7391 14.7223 22.256 14.5834L21.8523 12.308H19.4806L19.0768 14.5834C18.5938 14.7223 18.1771 14.8868 17.8268 15.0771C17.4763 15.2671 17.1323 15.5214 16.7948 15.84L14.6023 15.09L13.4006 17.1217L15.141 18.5963C15.0213 19.0918 14.9614 19.5598 14.9614 20C14.9614 20.4403 15.0213 20.9082 15.141 21.4038L13.4006 22.8784L14.6023 24.91L16.7948 24.16C17.1323 24.4787 17.4763 24.733 17.8268 24.923C18.1771 25.1132 18.5938 25.2778 19.0768 25.4167L19.4806 27.6921ZM20.6664 23.3334C19.7498 23.3334 18.965 23.007 18.3123 22.3542C17.6595 21.7014 17.3331 20.9167 17.3331 20C17.3331 19.0834 17.6595 18.2987 18.3123 17.6459C18.965 16.9931 19.7498 16.6667 20.6664 16.6667C21.5831 16.6667 22.3678 16.9931 23.0206 17.6459C23.6734 18.2987 23.9998 19.0834 23.9998 20C23.9998 20.9167 23.6734 21.7014 23.0206 22.3542C22.3678 23.007 21.5831 23.3334 20.6664 23.3334ZM9.51267 34.1667C8.67073 34.1667 7.95809 33.875 7.37476 33.2917C6.79142 32.7084 6.49976 31.9957 6.49976 31.1538V8.84629C6.49976 8.00435 6.79142 7.29171 7.37476 6.70837C7.95809 6.12504 8.67073 5.83337 9.51267 5.83337H31.8202C32.6621 5.83337 33.3748 6.12504 33.9581 6.70837C34.5414 7.29171 34.8331 8.00435 34.8331 8.84629V31.1538C34.8331 31.9957 34.5414 32.7084 33.9581 33.2917C33.3748 33.875 32.6621 34.1667 31.8202 34.1667H9.51267ZM9.51267 31.6667H31.8202C31.9485 31.6667 32.066 31.6132 32.1727 31.5063C32.2796 31.3996 32.3331 31.2821 32.3331 31.1538V8.84629C32.3331 8.71796 32.2796 8.60046 32.1727 8.49379C32.066 8.38685 31.9485 8.33337 31.8202 8.33337H9.51267C9.38434 8.33337 9.26684 8.38685 9.16017 8.49379C9.05323 8.60046 8.99976 8.71796 8.99976 8.84629V31.1538C8.99976 31.2821 9.05323 31.3996 9.16017 31.5063C9.26684 31.6132 9.38434 31.6667 9.51267 31.6667Z" fill="#1D252D"/>
</svg>
