<svg width="80" height="80" viewBox="0 0 80 80" fill="none" xmlns="http://www.w3.org/2000/svg">
<rect width="80" height="80" rx="8" fill="white"/>
<g clip-path="url(#clip0_116_17780)">
<path d="M25.3151 26.436C23.2991 25.252 20.7231 25.952 19.5591 28C19.3591 28.356 19.2111 28.738 19.1171 29.132C18.5751 31.434 19.9651 33.748 22.2291 34.3L22.2271 45.698C21.4451 45.892 20.7311 46.31 20.1751 46.904C18.5711 48.614 18.6331 51.324 20.3131 52.956C21.9931 54.59 24.6571 54.526 26.2611 52.816L35.9671 58.51C35.8531 58.908 35.7951 59.318 35.7951 59.728C35.7951 62.09 37.6791 64.002 40.0011 64C40.4511 64 40.8911 63.926 41.3191 63.784C43.5251 63.042 44.7251 60.62 43.9951 58.372L53.6391 52.708C53.9371 53.048 54.2871 53.34 54.6731 53.566C56.6911 54.75 59.2651 54.048 60.4291 52.002C60.6371 51.64 60.7911 51.248 60.8871 50.84C61.4251 48.548 60.0331 46.248 57.7791 45.702V34.304C58.1651 34.208 58.5351 34.058 58.8771 33.858C60.8991 32.68 61.5991 30.058 60.4411 28.002C60.2391 27.65 59.9911 27.328 59.7011 27.048C58.0111 25.416 55.3431 25.484 53.7371 27.202L44.0351 21.502C44.1491 21.104 44.2131 20.688 44.2111 20.27C44.2091 17.908 42.3231 15.998 40.0011 16C39.5971 16 39.1891 16.058 38.8011 16.176C36.5791 16.846 35.3071 19.226 35.9671 21.49L26.2591 27.19C25.9811 26.892 25.6631 26.638 25.3151 26.436ZM43.1151 56.842C42.3411 55.986 41.2331 55.446 40.0011 55.446C38.8091 55.446 37.7351 55.944 36.9731 56.752L27.2611 51.048L27.3031 50.882H52.7011L52.7751 51.166L43.1151 56.842ZM43.0211 23.256L52.7471 28.972L52.7091 29.116C52.1511 31.408 53.5191 33.726 55.7711 34.292V45.706L55.6111 45.752L42.9051 23.372L43.0211 23.256ZM38.8311 24.388C39.5971 24.612 40.4071 24.612 41.1751 24.388L53.8811 46.76C53.2991 47.326 52.8851 48.052 52.6951 48.85H27.3091C27.1151 48.058 26.7051 47.334 26.1271 46.768L38.8311 24.388ZM27.2491 28.958L36.9751 23.254L37.0911 23.374L24.3911 45.752L24.2271 45.706V34.29L24.3751 34.248C26.6071 33.594 27.8911 31.228 27.2491 28.958Z" fill="#DF34A6"/>
<path d="M40.0006 50.8819H27.3026L27.2606 51.0479L36.9726 56.7519C37.7346 55.9459 38.8086 55.4459 40.0006 55.4459V50.8819ZM38.8306 24.3879L26.1286 46.7659C26.7066 47.3319 27.1166 48.0559 27.3106 48.8479H40.0006V24.5559C39.6066 24.5559 39.2126 24.4999 38.8306 24.3879ZM36.9746 23.2539L27.2486 28.9579C27.8906 31.2279 26.6066 33.5939 24.3746 34.2479L24.2266 34.2899V45.7059L24.3906 45.7519L37.0906 23.3739L36.9746 23.2539Z" fill="#DEDEDE"/>
<path d="M24.3911 45.752L24.2271 45.706V34.29L24.3751 34.248C26.6051 33.594 27.8911 31.228 27.2491 28.958L36.9751 23.254L37.0911 23.374L24.3911 45.752ZM40.0011 16C39.5971 16 39.1891 16.058 38.8011 16.176C36.5791 16.846 35.3071 19.226 35.9671 21.49L26.2591 27.19C25.9811 26.892 25.6631 26.638 25.3151 26.436C24.6511 26.046 23.9251 25.86 23.2091 25.86C21.7531 25.86 20.3391 26.626 19.5591 28C19.3591 28.356 19.2111 28.738 19.1171 29.132C18.5751 31.434 19.9651 33.748 22.2291 34.3L22.2271 45.698C21.4451 45.892 20.7311 46.31 20.1751 46.904C18.5711 48.614 18.6331 51.324 20.3131 52.956C21.1271 53.748 22.1731 54.14 23.2171 54.14C24.3271 54.14 25.4351 53.696 26.2631 52.816L35.9691 58.51C35.8551 58.908 35.7971 59.318 35.7971 59.728C35.7951 62.088 37.6771 64 39.9971 64H40.0011V55.446C38.8091 55.446 37.7351 55.944 36.9731 56.752L27.2611 51.048L27.3031 50.882H40.0011V48.85H27.3091C27.1151 48.058 26.7051 47.334 26.1271 46.768L38.8291 24.39C39.2131 24.5 39.6071 24.556 40.0011 24.556V16Z" fill="#C22D91"/>
</g>
<defs>
<clipPath id="clip0_116_17780">
<rect width="48" height="48" fill="white" transform="translate(16 16)"/>
</clipPath>
</defs>
</svg>
