<svg width="80" height="80" viewBox="0 0 80 80" fill="none" xmlns="http://www.w3.org/2000/svg">
<rect width="80" height="80" rx="8" fill="white"/>
<path fill-rule="evenodd" clip-rule="evenodd" d="M34.5166 36.3163V47.2012H36.3171H38.1176L38.1222 43.0682C38.1266 39.0847 38.1404 38.9086 38.5028 38.1987C39.7483 35.7588 43.2313 35.3823 44.9812 37.4983C45.8602 38.5611 45.9852 39.314 45.9667 43.4365L45.9502 47.1194L47.6401 47.1657L49.3299 47.2119L49.2481 42.5826L49.1662 37.9531L48.6573 36.8792C47.0069 33.3965 42.8139 31.7592 39.2233 33.1957C38.646 33.4266 38.1427 33.6155 38.1049 33.6157C38.0669 33.6157 38.0568 31.7743 38.0821 29.5236L38.1286 25.4314H36.3225H34.5166V36.3163ZM23.1577 32.8942C21.1249 33.3861 19.2169 34.9861 18.2829 36.9822C17.3525 38.9699 17.4743 41.6565 18.5811 43.5658C19.9395 45.9089 22.2856 47.2012 25.1815 47.2012H26.6598V45.4825V43.7639H25.3451C23.9015 43.7639 23.266 43.5661 22.4216 42.8541C21.3423 41.9442 20.7961 39.9979 21.2675 38.7413C22.493 35.4742 26.8623 35.182 28.5068 38.2571C28.8491 38.8968 28.8725 39.1693 28.9229 43.0682L28.9763 47.2012H30.6825H32.3887L32.3848 43.1501C32.3825 40.9219 32.3063 38.776 32.2152 38.3812C31.925 37.1224 31.1989 35.8585 30.1813 34.8409C28.2767 32.9363 25.8098 32.2526 23.1577 32.8942ZM62.9974 32.8132C61.2807 33.1484 59.291 34.5523 58.294 36.1318C57.6065 37.2208 57.2502 38.4926 57.2463 39.872C57.2419 41.4504 57.5696 42.6011 58.3803 43.8534C59.8443 46.1147 61.9366 47.2012 64.8277 47.2012H66.2711V45.4825V43.7639H64.9564C64.2111 43.7639 63.4083 43.6663 63.103 43.5388C60.9409 42.6354 60.0636 39.9172 61.2927 37.9292C62.884 35.3552 66.6646 35.5411 68.1222 38.265C68.4595 38.8953 68.4839 39.1812 68.5319 43.0682L68.5831 47.2012H70.2915H72L71.9961 43.1501C71.9938 40.9219 71.9175 38.7756 71.8263 38.3807C70.932 34.5007 67.0124 32.0291 62.9974 32.8132ZM13.8317 35.2493C13.0331 35.6973 11.9284 36.251 11.9284 36.251C11.9284 36.251 11.9284 37.5091 11.9284 42.2343C11.9284 48.6235 11.9143 48.7271 10.897 49.7992C10.3236 50.4037 8.95002 51.1255 8.36829 51.128C8.00982 51.1296 8 51.1754 8 52.8493V54.5687L8.85934 54.4684C11.4485 54.1658 13.6255 52.5841 14.7658 50.177L15.2839 49.0836L15.3317 43.4365C15.358 40.3306 15.358 37.0347 15.3317 36.1122L15.2839 34.4349L13.8317 35.2493ZM51.5396 40.8143V47.2012H53.2583H54.977V41.7519V36.3026L53.954 35.7122C53.3914 35.3874 52.6178 34.9656 52.2353 34.7746L51.5396 34.4272V40.8143Z" fill="black"/>
<path d="M51.5396 28.8689H54.9769V33.9431L51.5396 32.0607V28.8689Z" fill="#059EDF"/>
<path d="M15.2021 28.8689H11.7648V33.9431L15.2021 32.0607V28.8689Z" fill="#059EDF"/>
</svg>
