<svg width="166" height="40" viewBox="0 0 166 40" fill="none" xmlns="http://www.w3.org/2000/svg">
<path fill-rule="evenodd" clip-rule="evenodd" d="M19.4496 0.0189515C19.44 0.0286548 19.312 0.0538021 19.1653 0.0748384C18.8981 0.113133 18.5761 0.198723 18.4567 0.263202C18.4217 0.28209 18.3599 0.297571 18.3193 0.297571C18.2787 0.297571 18.2455 0.312423 18.2455 0.330607C18.2455 0.348755 18.2028 0.374458 18.1506 0.387679C18.0491 0.413419 17.5758 0.701594 17.5554 0.750037C17.5486 0.765999 17.5273 0.779036 17.508 0.779036C17.4603 0.779036 17.411 0.821886 17.0401 1.18643C16.8639 1.35957 16.6885 1.55538 16.6502 1.6216C16.612 1.68782 16.5696 1.74197 16.5562 1.74197C16.5427 1.74197 16.5218 1.77115 16.5096 1.80678C16.4975 1.84241 16.4519 1.92992 16.4083 2.00122C16.285 2.20295 16.1201 2.54723 16.1201 2.60282C16.1201 2.63045 16.1053 2.6689 16.0873 2.68823C16.0112 2.76986 15.8667 3.60949 15.8648 3.9807C15.8634 4.26691 15.9286 4.84019 15.9726 4.92845C15.9883 4.95982 16.0128 5.05555 16.0271 5.14122C16.0414 5.22692 16.0682 5.3064 16.0866 5.31791C16.105 5.3294 16.1201 5.36695 16.1201 5.40136C16.1201 5.45635 16.4018 6.06363 16.4499 6.11218C16.4599 6.12237 16.5255 6.21403 16.5955 6.31588C16.7253 6.50465 16.8835 6.6965 17.0215 6.8326C17.1877 6.99634 17.4027 7.18622 17.4221 7.18622C17.4333 7.18622 17.5283 7.24907 17.6333 7.32588C17.7382 7.40269 17.89 7.49854 17.9707 7.53884C18.0513 7.57917 18.1255 7.62239 18.1356 7.63491C18.1456 7.64746 18.1951 7.66931 18.2455 7.68354C18.3411 7.7105 18.4212 7.74113 18.5753 7.80961C18.8681 7.93971 19.6978 8.02293 20.1969 7.97227C20.5965 7.93168 20.8984 7.87249 21.0026 7.81435C21.0376 7.79479 21.0914 7.77879 21.1222 7.77879C21.153 7.77879 21.2068 7.7632 21.2418 7.74413C21.2768 7.72505 21.4016 7.66409 21.5192 7.60865C21.8643 7.44591 22.2866 7.14015 22.5902 6.83331C22.8591 6.56161 23.3392 5.89271 23.3392 5.7899C23.3392 5.76346 23.3523 5.74183 23.3683 5.74183C23.3955 5.74183 23.4576 5.5695 23.5886 5.13074C23.619 5.02889 23.6619 4.90556 23.6839 4.85663C23.7448 4.7216 23.7368 3.35854 23.6739 3.14932C23.5065 2.59245 23.4709 2.49001 23.3648 2.26047C23.2959 2.1114 23.0444 1.69797 22.988 1.64093C22.9595 1.61212 22.9361 1.5769 22.9361 1.56271C22.9361 1.51997 22.4156 0.988695 22.2582 0.870737C22.1776 0.810368 22.1034 0.750815 22.0933 0.738482C22.0832 0.726112 22.0008 0.672669 21.9101 0.619708C21.3802 0.310423 20.9494 0.151243 20.3961 0.0603574C20.058 0.00484086 19.4882 -0.0200842 19.4496 0.0189515ZM10.953 16.0228C10.8243 16.0383 10.7556 16.0547 10.3484 16.1676C10.0963 16.2375 10.0612 16.2511 9.76204 16.3945C9.2911 16.6201 8.97899 16.8445 8.61514 17.2193C8.41901 17.4213 8.13131 17.7961 8.13131 17.8497C8.13131 17.8716 8.11892 17.8897 8.10382 17.8898C8.06696 17.8901 7.94808 18.1042 7.94808 18.1703C7.94808 18.1992 7.93159 18.2229 7.91143 18.2229C7.89128 18.2229 7.87479 18.2412 7.87479 18.2636C7.87479 18.3015 7.79593 18.5016 7.72978 18.6315C7.71388 18.6627 7.68958 18.746 7.67576 18.8167C7.66195 18.8873 7.6371 18.9784 7.62058 19.0191C7.47791 19.3706 7.47791 20.6306 7.62058 20.982C7.6371 21.0228 7.66195 21.1139 7.67576 21.1845C7.68958 21.2551 7.71388 21.3385 7.72978 21.3697C7.79593 21.4996 7.87479 21.6997 7.87479 21.7376C7.87479 21.76 7.89128 21.7783 7.91143 21.7783C7.93159 21.7783 7.94808 21.8096 7.94808 21.8479C7.94808 21.8861 7.97281 21.9381 8.00305 21.9635C8.03328 21.9889 8.05802 22.0326 8.05802 22.0606C8.05802 22.0887 8.07451 22.1116 8.09466 22.1116C8.11482 22.1116 8.13131 22.1301 8.13131 22.1526C8.13131 22.2119 8.42488 22.5875 8.64698 22.8124C8.85579 23.0238 9.03876 23.1823 9.20469 23.2954C9.43267 23.4507 9.92984 23.7042 10.0067 23.7042C10.0434 23.7042 10.0735 23.718 10.0735 23.735C10.0735 23.7632 10.1464 23.7865 10.5682 23.8931C11.2739 24.0713 12.2968 23.9871 12.9319 23.6985C13.193 23.5798 13.425 23.4651 13.4449 23.4449C13.472 23.4175 13.6018 23.337 13.6648 23.3085C13.695 23.2948 13.728 23.2737 13.7381 23.2615C13.7482 23.2493 13.8301 23.1814 13.9201 23.1106C14.1276 22.9476 14.3436 22.7295 14.5074 22.5178C14.5778 22.4268 14.6479 22.3468 14.6631 22.34C14.6784 22.3332 14.6909 22.3041 14.6909 22.2752C14.6909 22.2464 14.7063 22.2227 14.7251 22.2227C14.7439 22.2227 14.7708 22.1852 14.7849 22.1394C14.7991 22.0936 14.8209 22.0477 14.8334 22.0376C14.8548 22.0202 15.0644 21.5898 15.1312 21.4265C15.1985 21.2616 15.2772 20.9827 15.2772 20.9088C15.2772 20.8656 15.2977 20.8095 15.3226 20.7843C15.3896 20.7166 15.3862 19.4099 15.3185 19.1858C15.2908 19.0941 15.2443 18.9358 15.2151 18.834C15.1859 18.7321 15.1483 18.6155 15.1315 18.5747C15.0618 18.4058 14.8545 17.9808 14.8334 17.9636C14.8209 17.9534 14.7991 17.9076 14.7849 17.8618C14.7708 17.8159 14.7439 17.7784 14.7251 17.7784C14.7063 17.7784 14.6909 17.7549 14.6909 17.726C14.6909 17.6971 14.6784 17.668 14.6631 17.6612C14.6479 17.6544 14.5778 17.5744 14.5074 17.4833C14.3444 17.2726 14.1286 17.0546 13.9201 16.8898C13.8301 16.8187 13.7509 16.7479 13.7442 16.7324C13.7375 16.717 13.7086 16.7044 13.6801 16.7044C13.6515 16.7044 13.6282 16.6889 13.6282 16.6699C13.6282 16.6509 13.5911 16.6236 13.5457 16.6093C13.5003 16.595 13.455 16.573 13.4449 16.5605C13.4256 16.5364 13.2075 16.4273 12.9319 16.3038C12.7806 16.236 12.661 16.1985 12.2019 16.0747C12.037 16.0302 11.1859 15.9949 10.953 16.0228ZM27.6451 16.0406C27.2015 16.1119 27.0156 16.1657 26.6822 16.3191C26.5758 16.3681 26.4645 16.4081 26.4348 16.4081C26.4051 16.4081 26.3808 16.4245 26.3808 16.4445C26.3808 16.4644 26.3396 16.4912 26.2892 16.504C26.2388 16.5168 26.1976 16.5403 26.1976 16.5563C26.1976 16.5722 26.1564 16.5957 26.106 16.6085C26.0556 16.6213 26.0144 16.6481 26.0144 16.6681C26.0144 16.6881 25.9896 16.7044 25.9594 16.7044C25.9292 16.7044 25.9044 16.7175 25.9044 16.7334C25.9044 16.7494 25.8509 16.7944 25.7853 16.8333C25.6418 16.9187 25.0698 17.5087 25.0407 17.6015C25.0293 17.6377 25.0046 17.6673 24.9858 17.6673C24.967 17.6673 24.9517 17.6852 24.9517 17.707C24.9517 17.7289 24.9311 17.7699 24.9058 17.7983C24.8475 17.864 24.7965 17.9331 24.7501 18.0092C24.6627 18.1525 24.2558 18.7639 24.2206 18.8046C24.1994 18.8292 24.1821 18.8667 24.1821 18.888C24.1821 18.9092 24.1697 18.927 24.1546 18.9276C24.1395 18.9281 24.0867 18.9948 24.0373 19.0757C23.9879 19.1566 23.9343 19.2228 23.9182 19.2228C23.9021 19.2228 23.8889 19.2478 23.8889 19.2784C23.8889 19.3089 23.8766 19.3343 23.8614 19.3348C23.8463 19.3352 23.7762 19.4182 23.7057 19.5191C23.6352 19.62 23.5651 19.703 23.55 19.7035C23.5348 19.7039 23.5225 19.7227 23.5225 19.7453C23.5225 19.7829 23.3486 20.0264 23.239 20.1421C23.2135 20.169 23.1926 20.2024 23.1926 20.2162C23.1926 20.23 23.15 20.2913 23.0979 20.3524C23.0459 20.4135 22.9676 20.5103 22.9239 20.5675C22.8445 20.6713 22.7663 20.7686 22.6499 20.9081C22.6159 20.9489 22.5303 21.0572 22.4598 21.1487C22.2921 21.3662 22.2096 21.4655 22.0702 21.6173C22.0071 21.686 21.902 21.8085 21.8368 21.8894C21.7715 21.9703 21.6665 22.093 21.6034 22.1619C21.5403 22.2308 21.3402 22.4509 21.1588 22.6509C20.7557 23.0956 19.5797 24.2839 19.292 24.5375C19.1764 24.6393 18.9984 24.8023 18.8963 24.8997C18.6633 25.1219 18.3394 25.405 18.2342 25.4784C18.19 25.5092 18.1319 25.5562 18.1049 25.5828C18.078 25.6094 17.9963 25.6767 17.9235 25.7324C17.8507 25.7881 17.7482 25.8754 17.6958 25.9263C17.6434 25.9772 17.5463 26.0606 17.4801 26.1115C17.4139 26.1624 17.3375 26.2249 17.3105 26.2504C17.2834 26.2759 17.2436 26.2967 17.222 26.2967C17.2004 26.2967 17.1828 26.3122 17.1828 26.3312C17.1828 26.3502 17.1539 26.375 17.1186 26.3864C17.0834 26.3977 17.0133 26.4446 16.9629 26.4907C16.9125 26.5368 16.7723 26.6485 16.6514 26.7389C16.5305 26.8294 16.426 26.9169 16.4193 26.9333C16.4126 26.9498 16.392 26.9633 16.3736 26.9633C16.345 26.9633 15.9722 27.2209 15.8376 27.3336C15.8133 27.354 15.7775 27.3707 15.7582 27.3707C15.7389 27.3707 15.7176 27.384 15.7108 27.4004C15.7007 27.4251 15.3701 27.6466 15.0757 27.826C15.0353 27.8506 14.9941 27.8792 14.984 27.8895C14.9577 27.9166 14.6494 28.121 14.5626 28.1688C14.3035 28.3117 14.0315 28.4677 13.9213 28.5366C13.8508 28.5807 13.7683 28.6282 13.7381 28.6422C13.7079 28.6562 13.6336 28.698 13.5732 28.7352C13.1843 28.9744 12.1393 29.5188 12.0692 29.5188C12.0432 29.5188 12.0164 29.5313 12.0096 29.5466C11.9933 29.5837 11.7334 29.704 11.6694 29.704C11.6416 29.704 11.6133 29.7164 11.6065 29.7317C11.594 29.7602 11.4494 29.8339 11.1912 29.9432C11.1106 29.9773 11.0117 30.0203 10.9713 30.0386C10.931 30.0571 10.7661 30.1231 10.6049 30.1854C10.4436 30.2477 10.2787 30.3129 10.2384 30.3302C10.1981 30.3476 10.0909 30.3904 10.0002 30.4255C9.90954 30.4606 9.81004 30.5021 9.77915 30.5179C9.74826 30.5335 9.67013 30.5581 9.60552 30.5724C9.54092 30.5868 9.47862 30.6139 9.46711 30.6327C9.45564 30.6515 9.4161 30.6669 9.37927 30.6669C9.34248 30.6669 9.26512 30.6918 9.20737 30.7222C9.14965 30.7526 9.06804 30.7776 9.02608 30.7778C8.98409 30.7779 8.93905 30.7888 8.926 30.802C8.88628 30.8421 8.52144 30.9607 8.43363 30.9619C8.38827 30.9626 8.35118 30.9798 8.35118 31.0002C8.35118 31.0206 8.32011 31.0372 8.2821 31.0372C8.20998 31.0372 7.91865 31.1202 7.68166 31.2082C7.60566 31.2364 7.50239 31.2595 7.45212 31.2595C7.40188 31.2595 7.3321 31.2755 7.2971 31.295C7.26211 31.3145 7.15104 31.3488 7.05026 31.3712C6.94948 31.3935 6.80107 31.4287 6.72045 31.4494C6.63983 31.47 6.46668 31.5097 6.33567 31.5374C6.20466 31.5652 5.98204 31.6152 5.84095 31.6485C5.69987 31.6818 5.49374 31.7239 5.38288 31.742C5.27203 31.7601 5.04116 31.801 4.86984 31.8327C4.69853 31.8645 4.43468 31.9064 4.28351 31.9258C3.32732 32.0489 2.93906 32.1163 2.68445 32.2036C2.47095 32.2768 1.96154 32.5254 1.94431 32.5648C1.93757 32.5801 1.91628 32.5927 1.89693 32.5927C1.75244 32.5927 0.922156 33.384 0.704921 33.7287C0.668642 33.7863 0.630347 33.8418 0.619793 33.852C0.588058 33.8826 0.288517 34.4976 0.288846 34.5315C0.288993 34.5488 0.265906 34.6155 0.237506 34.6797C0.184113 34.8004 0.173193 34.8424 0.106058 35.1852C0.0841073 35.2973 0.0488908 35.4723 0.0277829 35.5741C-0.0543033 35.97 0.0541311 36.8441 0.239815 37.2834C0.266932 37.3475 0.28914 37.4351 0.28914 37.4778C0.28914 37.5206 0.30563 37.5555 0.325785 37.5555C0.34594 37.5555 0.362431 37.5731 0.362431 37.5946C0.362431 37.6773 0.593482 38.0988 0.776087 38.3491C1.21627 38.9527 1.8542 39.4451 2.57949 39.7411C2.94763 39.8914 3.69744 40.0147 4.08816 39.9894C4.43526 39.9668 4.90389 39.896 4.98099 39.8544C5.01188 39.8377 5.09379 39.8116 5.16301 39.7962C5.23223 39.7808 5.31414 39.7549 5.34503 39.7386C5.37592 39.7222 5.47948 39.6785 5.57513 39.6414C5.67081 39.6043 5.74912 39.5615 5.74919 39.5462C5.74927 39.5309 5.76851 39.5184 5.79192 39.5184C5.84132 39.5184 6.20147 39.2929 6.21961 39.2506C6.22636 39.2349 6.24812 39.2221 6.26806 39.2221C6.28796 39.2221 6.32581 39.2013 6.35216 39.1758C6.37847 39.1504 6.48925 39.0552 6.59831 38.9643C6.70737 38.8734 6.86403 38.715 6.94648 38.6124C7.11641 38.4009 7.69156 37.4737 7.69156 37.4113C7.69156 37.3888 7.70805 37.3704 7.7282 37.3704C7.74836 37.3704 7.76485 37.3465 7.76485 37.3174C7.76485 37.2884 7.78552 37.2425 7.81073 37.2156C7.83598 37.1887 7.88923 37.1042 7.92902 37.0278C7.96882 36.9514 8.01221 36.8889 8.02544 36.8889C8.03867 36.8889 8.05915 36.8597 8.07099 36.8241C8.09565 36.7499 8.1652 36.6375 8.23208 36.5638C8.25729 36.536 8.27789 36.4908 8.27789 36.4634C8.27789 36.436 8.29086 36.4081 8.30677 36.4012C8.33073 36.391 8.60165 36.0023 8.73596 35.7855C8.75611 35.7529 8.80145 35.6931 8.83674 35.6525C8.87202 35.6119 8.90086 35.5674 8.90086 35.5536C8.90086 35.5399 8.95019 35.4722 9.01044 35.4032C9.07072 35.3342 9.12953 35.2486 9.14119 35.213C9.1528 35.1774 9.17769 35.1482 9.19649 35.1482C9.21528 35.1482 9.23068 35.1232 9.23068 35.0927C9.23068 35.0621 9.24306 35.0367 9.25816 35.0363C9.27326 35.0358 9.34336 34.9528 9.4139 34.8519C9.48445 34.751 9.55451 34.668 9.56965 34.6676C9.58478 34.6671 9.59713 34.6488 9.59713 34.6269C9.59713 34.6049 9.6425 34.5396 9.69791 34.4818C9.75332 34.4239 9.83991 34.3223 9.8903 34.2559C9.94068 34.1895 9.99877 34.1173 10.0193 34.0954C10.0399 34.0735 10.0912 34.0105 10.1334 33.9553C10.4675 33.5177 11.5041 32.4242 12.2744 31.6968C12.8874 31.1178 13.0568 30.9654 13.0883 30.9642C13.1038 30.9637 13.1697 30.9087 13.2349 30.8422C13.3 30.7757 13.4275 30.6631 13.5181 30.5922C13.6794 30.4659 13.7397 30.4161 13.9178 30.2617C13.9662 30.2197 14.0158 30.1854 14.0281 30.1854C14.0403 30.1854 14.0914 30.1476 14.1416 30.1013C14.3617 29.8983 15.7256 28.9262 15.7903 28.9262C15.8071 28.9262 15.8263 28.9137 15.833 28.8984C15.8473 28.8659 16.4656 28.4447 16.4991 28.4447C16.5115 28.4447 16.6169 28.3825 16.7332 28.3064C16.8494 28.2304 16.981 28.1484 17.0256 28.1242C17.2126 28.0228 17.3489 27.9436 17.366 27.9262C17.3761 27.9161 17.4421 27.877 17.5126 27.8394C17.7285 27.7244 17.8598 27.6494 17.879 27.63C17.8891 27.6198 18.0128 27.5531 18.1539 27.4818C18.295 27.4105 18.4159 27.3397 18.4226 27.3244C18.4294 27.3091 18.4531 27.2966 18.4754 27.2966C18.5298 27.2966 18.9935 27.0633 19.0089 27.0281C19.0157 27.0128 19.0353 27.0003 19.0526 27.0003C19.0884 27.0003 19.6797 26.7313 19.8269 26.648C19.8804 26.6177 19.9491 26.593 19.9796 26.593C20.0101 26.593 20.0405 26.5805 20.0473 26.5652C20.064 26.5271 20.3243 26.4078 20.3905 26.4078C20.4201 26.4078 20.4442 26.3911 20.4442 26.3707C20.4442 26.3504 20.4623 26.3337 20.4845 26.3337C20.5066 26.3337 20.585 26.3073 20.6586 26.2751C20.7322 26.2428 20.8465 26.1928 20.9127 26.164C20.9789 26.1351 21.0572 26.1115 21.0868 26.1115C21.1163 26.1115 21.1405 26.0948 21.1405 26.0745C21.1405 26.0541 21.1669 26.0374 21.1991 26.0374C21.2313 26.0374 21.3179 26.0105 21.3915 25.9775C21.4651 25.9445 21.5773 25.8945 21.6408 25.8663C21.7043 25.8382 21.7826 25.8152 21.8148 25.8152C21.8471 25.8152 21.8734 25.8026 21.8734 25.7872C21.8734 25.7567 22.0883 25.6734 22.249 25.6416C22.3045 25.6306 22.3498 25.6083 22.3498 25.592C22.3498 25.5758 22.4157 25.5512 22.4962 25.5375C22.5767 25.5237 22.6519 25.4972 22.6633 25.4787C22.6746 25.4601 22.7232 25.4448 22.7712 25.4448C22.8192 25.4448 22.8678 25.4296 22.8792 25.411C22.8906 25.3924 22.9657 25.366 23.0461 25.3523C23.1265 25.3385 23.2004 25.314 23.2104 25.2977C23.2204 25.2814 23.2905 25.2563 23.3663 25.242C23.4421 25.2277 23.5206 25.2039 23.5408 25.189C23.561 25.1742 23.6764 25.1317 23.7973 25.0946C23.9182 25.0574 24.0502 25.0148 24.0905 24.9999C24.248 24.9413 24.5764 24.8523 24.6347 24.8523C24.6685 24.8523 24.7248 24.8366 24.7598 24.8174C24.7948 24.7982 24.9223 24.7553 25.0433 24.7221C25.1642 24.6889 25.3434 24.6379 25.4414 24.6088C25.5395 24.5798 25.658 24.556 25.7049 24.556C25.7518 24.556 25.8004 24.5393 25.8128 24.5189C25.8253 24.4986 25.8829 24.4819 25.9409 24.4819C25.9988 24.4819 26.0927 24.4638 26.1494 24.4417C26.2061 24.4196 26.335 24.3853 26.4358 24.3654C26.5366 24.3456 26.7262 24.3084 26.8572 24.2829C26.9882 24.2573 27.1202 24.2271 27.1504 24.2158C27.264 24.1733 27.8336 24.0742 27.9636 24.0743C28.038 24.0744 28.1075 24.0603 28.1182 24.0429C28.1288 24.0255 28.2717 24 28.4357 23.9862C28.8658 23.9499 29.3476 23.8314 29.6708 23.6823C29.7772 23.6332 29.8884 23.5931 29.9181 23.5931C29.9478 23.5931 29.9721 23.5764 29.9721 23.556C29.9721 23.5357 29.9957 23.519 30.0245 23.519C30.0532 23.519 30.0994 23.4962 30.1269 23.4683C30.1545 23.4404 30.2093 23.4072 30.2487 23.3945C30.288 23.3817 30.3681 23.3295 30.4267 23.2785C30.4853 23.2274 30.5463 23.1857 30.5624 23.1857C30.5785 23.1857 30.745 23.0315 30.9323 22.8431C31.2661 22.5075 31.4962 22.2036 31.6405 21.9079C31.6802 21.8265 31.7214 21.7515 31.7318 21.7413C31.7594 21.7146 31.8391 21.5268 31.9047 21.3339C32.1994 20.4686 32.1993 19.5332 31.9044 18.666C31.7945 18.3429 31.5306 17.8361 31.3965 17.6907C31.3588 17.6498 31.328 17.604 31.328 17.5889C31.328 17.5485 30.9381 17.1228 30.7383 16.9451C30.6174 16.8375 30.3605 16.6562 30.2103 16.5724C29.8499 16.3713 29.6952 16.297 29.6371 16.297C29.5997 16.297 29.569 16.2841 29.569 16.2684C29.569 16.242 29.4541 16.2052 29.0743 16.11C28.6593 16.006 28.0457 15.9762 27.6451 16.0406ZM35.1025 32.0364C34.8225 32.0789 34.5464 32.1446 34.4709 32.1868C34.4359 32.2064 34.382 32.2224 34.3513 32.2224C34.3205 32.2224 34.2666 32.238 34.2317 32.257C34.1967 32.2761 34.1186 32.3147 34.0581 32.3428C33.8497 32.4395 33.5079 32.6402 33.3252 32.7731C33.1532 32.8982 32.7197 33.3192 32.5551 33.5208C32.4557 33.6427 32.2052 34.0579 32.1208 34.2408C32.0832 34.3223 32.0296 34.4332 32.0017 34.4873C31.9738 34.5413 31.951 34.6205 31.951 34.6632C31.951 34.7059 31.9345 34.7408 31.9143 34.7408C31.8942 34.7408 31.8777 34.7806 31.8777 34.8291C31.8777 34.8777 31.8542 34.9986 31.8255 35.0977C31.7255 35.4435 31.6954 35.9821 31.7514 36.4259C31.8056 36.8554 31.8776 37.1974 31.9235 37.2438C31.9386 37.2591 31.951 37.2927 31.951 37.3184C31.951 37.3441 32.0004 37.4732 32.0609 37.6052C32.1214 37.7373 32.1708 37.8541 32.1708 37.8649C32.1708 37.9028 32.4724 38.3703 32.4968 38.3703C32.5104 38.3703 32.5509 38.4206 32.5868 38.4821C32.6542 38.5974 33.1573 39.111 33.2028 39.111C33.2168 39.111 33.2501 39.1324 33.2768 39.1585C33.3388 39.2194 33.5588 39.3769 33.6545 39.4289C34.0493 39.6436 34.1605 39.6958 34.3513 39.7559C34.4722 39.7939 34.6041 39.8378 34.6444 39.8533C34.7652 39.8998 35.4731 40.0001 35.6797 40C36.004 39.9998 36.7384 39.8592 37.0264 39.7422C37.3141 39.6254 37.4319 39.5734 37.4478 39.5565C37.4579 39.5457 37.5456 39.4953 37.6426 39.4444C37.7397 39.3934 37.8503 39.3226 37.8884 39.287C37.9266 39.2513 37.9679 39.2221 37.9803 39.2221C37.9926 39.2221 38.0246 39.2013 38.0513 39.1758C38.0779 39.1504 38.1527 39.0879 38.2173 39.037C38.5077 38.8081 38.9869 38.2309 38.9869 38.11C38.9869 38.0902 39.0007 38.074 39.0176 38.074C39.0345 38.074 39.1147 37.9365 39.1959 37.7685C39.3274 37.4962 39.3902 37.3273 39.5028 36.9429C39.5357 36.8307 39.6223 36.1225 39.6204 35.9815C39.6176 35.7726 39.5261 35.088 39.4969 35.0575C39.4785 35.0381 39.4633 34.9887 39.4633 34.9476C39.4633 34.8607 39.3813 34.6194 39.2574 34.3417C39.2094 34.2342 39.1702 34.13 39.1702 34.1102C39.1702 34.0904 39.1556 34.0742 39.1378 34.0742C39.12 34.0742 39.0957 34.045 39.0839 34.0094C39.0611 33.9409 38.9833 33.8091 38.9472 33.7779C38.9354 33.7677 38.9106 33.7324 38.8922 33.6996C38.7864 33.5107 38.381 33.0665 38.1612 32.8985C38.1014 32.8528 37.9934 32.7695 37.9213 32.7133C37.8492 32.6572 37.6925 32.5613 37.5732 32.5002C37.4538 32.439 37.348 32.3799 37.3379 32.3686C37.3278 32.3574 37.2371 32.3186 37.1363 32.2824C37.0356 32.2462 36.9201 32.2029 36.8798 32.1861C36.5554 32.0507 35.5602 31.9669 35.1025 32.0364Z" fill="#117CC1"/>
<path fill-rule="evenodd" clip-rule="evenodd" d="M57.9511 7.91576C57.8301 7.92413 57.7155 7.94676 57.6964 7.96602C57.6772 7.98528 57.6324 8.00102 57.5969 8.00102C57.5222 8.00102 57.2607 8.1172 57.2426 8.15842C57.2359 8.17368 57.2116 8.1862 57.1887 8.1862C57.131 8.1862 56.7235 8.59881 56.7235 8.65726C56.7235 8.68333 56.7073 8.7047 56.6875 8.7047C56.6678 8.7047 56.6412 8.74636 56.6286 8.79729C56.6159 8.84821 56.5909 8.88988 56.5729 8.88988C56.5549 8.88988 56.5402 8.93054 56.5402 8.98028C56.5402 9.03002 56.5256 9.07983 56.5077 9.09098C56.4899 9.10213 56.4636 9.17394 56.4495 9.25057C56.4353 9.3272 56.4108 9.40653 56.395 9.4269C56.3791 9.44726 56.3582 9.51393 56.3483 9.57504C56.3246 9.7224 56.2447 10.0379 56.2076 10.1306C56.1913 10.1713 56.1667 10.279 56.153 10.3699C56.1393 10.4607 56.1156 10.5607 56.1003 10.5921C56.068 10.6583 55.9885 10.9691 55.9625 11.1305C55.9527 11.1916 55.9321 11.2583 55.9167 11.2787C55.9014 11.2991 55.8772 11.4032 55.8629 11.5101C55.8487 11.617 55.8222 11.7139 55.8039 11.7253C55.7856 11.7367 55.7707 11.7869 55.7707 11.8369C55.7707 11.8869 55.7548 11.9568 55.7355 11.9921C55.7162 12.0275 55.6822 12.1398 55.6601 12.2416C55.5935 12.5484 55.5624 12.6755 55.4967 12.9083C55.4622 13.0305 55.4184 13.2055 55.3993 13.2971C55.3802 13.3888 55.3488 13.4927 55.3294 13.5281C55.3101 13.5635 55.2943 13.6345 55.2943 13.686C55.2943 13.7375 55.2784 13.8086 55.2591 13.8439C55.2264 13.9038 55.1955 14.0277 55.1093 14.4452C55.0904 14.5369 55.0595 14.6452 55.0408 14.686C55.022 14.7267 54.9981 14.8017 54.9877 14.8526C54.9331 15.1203 54.8837 15.3235 54.8571 15.3897C54.8407 15.4304 54.7912 15.6137 54.7469 15.797C54.7027 15.9804 54.642 16.222 54.6119 16.3341C54.5361 16.617 54.4988 16.7672 54.4511 16.9822C54.4285 17.084 54.4 17.1924 54.3877 17.2229C54.3755 17.2535 54.3432 17.3701 54.3159 17.4822C54.2887 17.5942 54.251 17.7442 54.2322 17.8155C54.1289 18.2076 54.1119 18.3384 54.1523 18.4282L54.1933 18.5192H55.0655C56.0722 18.5192 56.0173 18.5388 56.118 18.1423C56.1506 18.0134 56.192 17.8581 56.2099 17.797C56.2277 17.7359 56.2536 17.6065 56.2672 17.5095C56.281 17.4125 56.3068 17.324 56.3246 17.3129C56.3424 17.3017 56.3568 17.2561 56.3567 17.2115C56.3563 17.1166 56.4634 16.638 56.5036 16.5548C56.5188 16.5234 56.543 16.4109 56.5575 16.3048C56.5719 16.1987 56.5987 16.1026 56.617 16.0912C56.6352 16.0798 56.6502 16.0295 56.6502 15.9794C56.6502 15.9294 56.6707 15.8221 56.6957 15.7409L56.7413 15.5933H58.3606H59.98L60.0021 15.6767C60.0142 15.7225 60.0412 15.8267 60.062 15.9082C60.0828 15.9896 60.115 16.1071 60.1337 16.1691C60.1523 16.2312 60.1782 16.3608 60.1913 16.4572C60.2043 16.5535 60.2292 16.6412 60.2466 16.6521C60.2639 16.6629 60.2781 16.7187 60.2781 16.776C60.2781 16.8334 60.3028 16.9512 60.333 17.0377C60.3633 17.1243 60.388 17.235 60.388 17.2836C60.388 17.3323 60.4034 17.401 60.4224 17.4364C60.4412 17.4718 60.4846 17.634 60.5187 17.797C60.5922 18.1483 60.6711 18.4067 60.7247 18.472C60.7541 18.5078 60.9719 18.519 61.6293 18.5186C62.1055 18.5183 62.5128 18.5058 62.5345 18.4908C62.6342 18.4218 62.6255 18.3045 62.4814 17.7785C62.4395 17.6257 62.4048 17.4632 62.4044 17.4174C62.4039 17.3715 62.3902 17.334 62.3738 17.334C62.3575 17.334 62.3262 17.2382 62.3041 17.1211C62.2821 17.0039 62.2444 16.8415 62.2205 16.76C62.1965 16.6785 62.1566 16.5285 62.1317 16.4267C62.1067 16.3248 62.0766 16.2165 62.0647 16.1859C62.0528 16.1554 62.034 16.0887 62.023 16.0378C62.012 15.9869 61.9762 15.8369 61.9434 15.7045C61.9107 15.5721 61.862 15.3721 61.8352 15.26C61.8083 15.148 61.7583 14.9563 61.724 14.8341C61.6898 14.7119 61.6543 14.5702 61.6451 14.5193C61.6359 14.4684 61.6141 14.3934 61.5967 14.3526C61.5685 14.2869 61.521 14.0945 61.4641 13.8156C61.4537 13.7647 61.4309 13.6897 61.4135 13.649C61.396 13.6082 61.3633 13.4916 61.3409 13.3897C61.2591 13.0191 61.2395 12.9434 61.1989 12.841C61.1762 12.7837 61.1576 12.6906 61.1576 12.6343C61.1576 12.5779 61.1452 12.5192 61.1301 12.504C61.1025 12.4761 61.0328 12.2217 60.9769 11.9453C60.9604 11.8638 60.9188 11.6972 60.8844 11.575C60.7606 11.1348 60.6705 10.7848 60.6078 10.5009C60.5854 10.3991 60.5537 10.2824 60.5373 10.2417C60.5002 10.1488 60.4203 9.83325 60.3967 9.68615C60.3868 9.62504 60.3662 9.55837 60.3509 9.538C60.3356 9.51763 60.3115 9.43023 60.2974 9.34375C60.2832 9.25731 60.2566 9.17716 60.2382 9.16565C60.2198 9.15416 60.2048 9.11331 60.2048 9.07487C60.2048 8.98017 59.9747 8.58948 59.8286 8.43619C59.6218 8.21912 59.2609 8.00102 59.1087 8.00102C59.0747 8.00102 59.0311 7.98602 59.012 7.96769C58.9709 7.92839 58.2663 7.89391 57.9511 7.91576ZM68.4867 7.92913C68.3355 7.94395 68.1624 7.96721 68.1019 7.98083C67.7595 8.05805 67.5114 8.12761 67.4808 8.15501C67.4616 8.17216 67.4204 8.18631 67.3892 8.18642C67.3579 8.18657 67.2851 8.21157 67.2274 8.24197C67.1697 8.27242 67.0996 8.29731 67.0717 8.29731C67.0437 8.29731 67.0209 8.31364 67.0209 8.33364C67.0209 8.3536 66.9797 8.38041 66.9293 8.39319C66.8789 8.40597 66.8376 8.42938 66.8376 8.44515C66.8376 8.46093 66.8088 8.48363 66.7735 8.49559C66.5481 8.57207 66.0645 9.03813 65.7871 9.44627C65.5728 9.76159 65.2619 10.5075 65.2619 10.7064C65.2619 10.7467 65.2467 10.8087 65.2281 10.844C65.2094 10.8794 65.1682 11.1083 65.1364 11.3528C65.0916 11.6971 65.0789 12.1351 65.0803 13.2971C65.0818 14.5887 65.0917 14.8588 65.1521 15.2415C65.2378 15.7851 65.2805 15.9907 65.3373 16.1325C65.3613 16.1924 65.3943 16.2748 65.4107 16.3155C65.5234 16.5961 65.6809 16.9183 65.7881 17.0877C65.9272 17.3074 66.3984 17.8155 66.4631 17.8155C66.4857 17.8155 66.5174 17.8384 66.5335 17.8664C66.5628 17.9174 66.9583 18.1691 67.1308 18.2466C67.4383 18.3847 67.6887 18.4694 67.882 18.5007C67.9627 18.5138 68.0616 18.5396 68.1019 18.5581C68.3208 18.6585 70.1653 18.6575 70.5389 18.5568C70.6094 18.5378 70.7496 18.5126 70.8503 18.5008C71.1554 18.4652 71.3959 18.3937 71.4733 18.3155C71.5408 18.2473 71.5466 18.1922 71.5466 17.6229C71.5466 17.1647 71.5343 16.9919 71.499 16.9563C71.4414 16.898 71.3111 16.8987 70.0052 16.9637C68.7593 17.0257 68.5705 17.0055 68.0683 16.7564C67.5463 16.4975 67.2199 15.956 67.0772 15.1119C67.0267 14.8134 67.0199 14.5156 67.0326 13.149C67.047 11.6057 67.0719 11.2259 67.1759 10.9639C67.1881 10.9333 67.2272 10.825 67.263 10.7231C67.3269 10.5411 67.3885 10.4245 67.4973 10.2796C67.5611 10.1945 67.8658 9.88862 67.9408 9.83429C68.0435 9.75992 68.2714 9.66763 68.3524 9.66763C68.398 9.66763 68.4536 9.64926 68.4757 9.62685C68.5405 9.56137 69.3583 9.54552 70.1541 9.59433C71.4517 9.67389 71.3941 9.67307 71.4708 9.61274C71.5332 9.56363 71.5433 9.49682 71.5561 9.04754C71.5725 8.47671 71.5425 8.2679 71.4358 8.20816C71.396 8.1859 71.3551 8.15872 71.3451 8.14779C71.335 8.13687 71.2031 8.10535 71.0519 8.07783C70.1639 7.91599 69.1941 7.85977 68.4867 7.92913ZM77.813 7.91547C77.6719 7.92387 77.5408 7.94654 77.5217 7.96587C77.5026 7.9852 77.438 8.00102 77.3783 8.00102C77.2718 8.00102 76.9148 8.09272 76.8041 8.1485C76.7732 8.16405 76.695 8.18853 76.6304 8.20286C76.5658 8.2172 76.5035 8.24431 76.492 8.26312C76.4805 8.28194 76.4391 8.29731 76.4 8.29731C76.3609 8.29731 76.3289 8.31364 76.3289 8.33364C76.3289 8.3536 76.2876 8.38041 76.2373 8.39319C76.1869 8.40597 76.1456 8.42938 76.1456 8.44515C76.1456 8.46093 76.1168 8.48363 76.0815 8.49559C75.9154 8.55196 75.4637 8.94658 75.2526 9.21979C75.1161 9.39642 74.8968 9.75885 74.8762 9.84188C74.8646 9.88862 74.8404 9.92688 74.8224 9.92688C74.8044 9.92688 74.7898 9.95132 74.7898 9.98117C74.7898 10.011 74.7662 10.0902 74.7375 10.1571C74.6557 10.3473 74.6341 10.4124 74.5803 10.6306C74.4163 11.2965 74.3878 11.6918 74.3896 13.2786C74.3914 14.8664 74.4126 15.1714 74.5693 15.8711C74.6118 16.0608 74.6258 16.102 74.7297 16.3446C74.7627 16.4217 74.7898 16.5078 74.7898 16.5359C74.7898 16.5641 74.8021 16.5927 74.8172 16.5995C74.8323 16.6063 74.9016 16.7243 74.9711 16.8618C75.0406 16.9993 75.1107 17.1118 75.1268 17.1118C75.143 17.1118 75.1562 17.135 75.1562 17.1632C75.1562 17.2087 75.6732 17.762 75.8246 17.8787C76.1827 18.1545 76.8097 18.4403 77.19 18.5011C77.2707 18.5139 77.3696 18.5396 77.4099 18.5581C77.6233 18.656 79.5134 18.6567 79.8285 18.5591C79.889 18.5404 80.0409 18.5138 80.166 18.5001C80.4414 18.47 80.6413 18.4113 80.7611 18.3254C80.8457 18.2648 80.8514 18.2372 80.8662 17.818C80.8748 17.5742 80.8706 17.2835 80.8568 17.172C80.8228 16.8974 80.7863 16.8867 80.024 16.9283C78.6003 17.006 78.3213 17.0112 78.0123 16.9657C77.8423 16.9406 77.6866 16.9068 77.6664 16.8906C77.6463 16.8744 77.5762 16.8495 77.5107 16.8354C77.4452 16.8212 77.3916 16.7984 77.3916 16.7846C77.3916 16.7708 77.3421 16.7374 77.2816 16.7103C77.2212 16.6833 77.1168 16.6073 77.0497 16.5415C76.8739 16.3689 76.622 16.0225 76.622 15.9533C76.622 15.9207 76.6055 15.8837 76.5854 15.8711C76.5652 15.8585 76.5487 15.8226 76.5487 15.7912C76.5487 15.7598 76.526 15.6816 76.4982 15.6175C76.3583 15.2947 76.3284 14.8821 76.3284 13.2786C76.3284 12.0018 76.3391 11.6634 76.3881 11.3898C76.4552 11.0154 76.6342 10.486 76.7285 10.3834C76.7626 10.3462 76.8203 10.2658 76.8566 10.2046C76.8929 10.1435 76.9874 10.0435 77.0665 9.98243C77.1456 9.92132 77.2305 9.85466 77.2552 9.83429C77.3381 9.76574 77.5766 9.66763 77.6604 9.66763C77.706 9.66763 77.7616 9.64926 77.7837 9.62685C77.8485 9.56137 78.6663 9.54552 79.4621 9.59433C80.7597 9.67389 80.7021 9.67307 80.7788 9.61274C80.8412 9.56363 80.8513 9.49682 80.8641 9.04754C80.8811 8.45352 80.851 8.25768 80.7343 8.2052C80.6896 8.18509 80.6531 8.1559 80.6531 8.14038C80.6531 8.12483 80.5988 8.11213 80.5325 8.11213C80.4662 8.11213 80.317 8.08713 80.2009 8.05657C80.0848 8.02602 79.934 8.00102 79.8658 8.00102C79.7975 8.00102 79.7035 7.98632 79.6568 7.96839C79.5603 7.93132 78.2023 7.89236 77.813 7.91547ZM86.498 7.92743C86.0605 7.97302 85.4536 8.10613 85.4536 8.15646C85.4536 8.17283 85.4264 8.1862 85.393 8.1862C85.2992 8.1862 84.9022 8.42682 84.7385 8.58293C84.5138 8.79725 84.2077 9.25475 84.2077 9.3763C84.2077 9.39797 84.1843 9.46823 84.1558 9.53241C84.1272 9.59659 84.0936 9.70744 84.0811 9.77873C84.0686 9.85003 84.0437 9.99169 84.0257 10.0935C84.0078 10.1954 83.9932 11.6287 83.9932 13.2786C83.9932 14.9286 84.0078 16.3618 84.0257 16.4637C84.0437 16.5655 84.0686 16.7072 84.0811 16.7785C84.0936 16.8498 84.1272 16.9606 84.1558 17.0248C84.1843 17.089 84.2074 17.1557 84.2071 17.173C84.205 17.2858 84.448 17.6508 84.6841 17.8895C84.9555 18.1639 85.3509 18.4081 85.524 18.4081C85.5635 18.4081 85.6049 18.4228 85.616 18.4409C85.627 18.459 85.6981 18.485 85.7739 18.4987C85.8497 18.5124 85.9612 18.5395 86.0216 18.5589C86.2369 18.6278 87.2283 18.6578 88.1809 18.6241C88.7065 18.6056 89.1695 18.5754 89.2098 18.5571C89.2501 18.5388 89.4138 18.5128 89.5736 18.4992C89.8613 18.4748 90.0099 18.4315 90.0985 18.3463C90.156 18.2909 90.1648 17.1488 90.1076 17.1488C90.0875 17.1488 90.071 17.1258 90.071 17.0976C90.071 17.0694 90.0339 17.0363 89.9885 17.024C89.9432 17.0118 89.197 17.0014 88.3303 17.001C87.341 17.0006 86.7 16.9857 86.608 16.9611C86.2661 16.8697 86.1099 16.7495 85.9903 16.4857C85.9179 16.3261 85.9123 16.2413 85.8998 15.1211L85.8865 13.9267H87.8322C89.1049 13.9267 89.7778 13.9139 89.7778 13.8897C89.7778 13.8693 89.7955 13.8527 89.8171 13.8527C89.9412 13.8527 89.961 13.7516 89.961 13.1203C89.961 12.5604 89.9539 12.4873 89.894 12.4325C89.8334 12.3771 89.6403 12.3712 87.8792 12.3712H85.9314L85.9082 12.2776C85.8954 12.2261 85.8918 11.7386 85.9003 11.1943C85.915 10.2523 85.9198 10.1968 85.9993 10.0426C86.0976 9.85173 86.2281 9.7217 86.4061 9.63707C86.5179 9.58389 86.7572 9.57345 88.2426 9.55696C89.8742 9.53885 89.9548 9.53471 90.0473 9.46441L90.1443 9.39079V8.81277C90.1443 8.30875 90.1361 8.22738 90.0801 8.17742C90.0431 8.14427 89.846 8.09398 89.6129 8.0582C89.3912 8.02417 89.1356 7.98091 89.0449 7.9621C88.8223 7.91584 86.8647 7.88921 86.498 7.92743ZM104.638 7.93021C104.185 7.97309 103.593 8.10209 103.593 8.15794C103.593 8.17346 103.566 8.1862 103.533 8.1862C103.429 8.1862 103.034 8.43393 102.841 8.61974C102.659 8.79588 102.421 9.1345 102.421 9.2172C102.421 9.24087 102.404 9.26023 102.384 9.26023C102.364 9.26023 102.347 9.29468 102.347 9.33675C102.347 9.37882 102.328 9.44964 102.304 9.49415C102.26 9.57663 102.226 9.728 102.161 10.1401C102.103 10.5054 102.138 16.5283 102.199 16.7415C102.359 17.3016 102.508 17.5746 102.822 17.8896C103.119 18.1866 103.396 18.3495 103.795 18.4611C103.916 18.495 104.072 18.5389 104.143 18.5588C104.387 18.6274 105.338 18.6558 106.305 18.6233C106.839 18.6054 107.309 18.5757 107.349 18.5573C107.39 18.5389 107.553 18.5128 107.713 18.4992C108.018 18.4734 108.162 18.4279 108.237 18.3344C108.299 18.2566 108.3 17.2729 108.239 17.1406C108.21 17.0803 108.153 17.0354 108.087 17.0221C108.029 17.0103 107.287 17.0005 106.438 17.0003C105.221 16.9999 104.853 16.9887 104.698 16.9472C104.32 16.8453 104.133 16.6396 104.065 16.2504C104.043 16.1233 104.017 15.5485 104.008 14.973L103.991 13.9267H105.954C107.239 13.9267 107.917 13.9139 107.917 13.8897C107.917 13.8693 107.936 13.8527 107.959 13.8527C108.073 13.8527 108.098 13.7226 108.099 13.1216C108.1 12.605 108.092 12.5097 108.038 12.4457C107.976 12.3728 107.933 12.3712 106.038 12.3712C104.36 12.3712 104.094 12.3638 104.046 12.3154C103.999 12.2676 103.993 12.1336 104.009 11.3987C104.033 10.2228 104.064 10.0524 104.293 9.8107C104.516 9.57537 104.505 9.57667 106.384 9.56433L108.094 9.55311L108.189 9.45719C108.283 9.3626 108.284 9.35349 108.283 8.82003C108.282 8.15735 108.274 8.14109 107.899 8.07457C107.012 7.91713 105.488 7.84965 104.638 7.93021ZM113.707 7.93002C112.652 7.97387 111.869 8.07805 111.729 8.19342L111.637 8.2686L111.627 13.3353C111.619 17.9145 111.623 18.4076 111.676 18.4606C111.725 18.5106 111.856 18.5192 112.57 18.5192C113.302 18.5192 113.412 18.5116 113.456 18.458C113.496 18.4084 113.509 18.0191 113.524 16.4117L113.543 14.4267L114.22 14.4388C114.957 14.452 115.027 14.4607 115.027 14.5403C115.027 14.5695 115.039 14.5936 115.054 14.5938C115.069 14.594 115.114 14.6649 115.154 14.7512C115.194 14.8376 115.236 14.9165 115.246 14.9267C115.256 14.9369 115.323 15.0619 115.393 15.2045C115.464 15.3471 115.53 15.4721 115.541 15.4822C115.552 15.4924 115.628 15.6341 115.71 15.797C115.893 16.161 115.992 16.3467 116.016 16.3711C116.026 16.3813 116.092 16.5063 116.163 16.6489C116.233 16.7915 116.3 16.9164 116.31 16.9266C116.32 16.9368 116.397 17.0785 116.48 17.2414C116.707 17.6849 116.765 17.795 116.786 17.8155C116.796 17.8257 116.862 17.9507 116.932 18.0933C117.003 18.2358 117.073 18.3581 117.088 18.3648C117.103 18.3717 117.115 18.399 117.115 18.4257C117.115 18.4524 117.142 18.4843 117.173 18.4967C117.205 18.5091 117.659 18.5192 118.181 18.5192C119.06 18.5192 119.131 18.5143 119.135 18.4544C119.144 18.3266 119.122 18.2406 119.06 18.1491C119.025 18.098 118.941 17.9396 118.872 17.797C118.803 17.6544 118.738 17.5294 118.728 17.5192C118.718 17.509 118.652 17.384 118.581 17.2414C118.511 17.0989 118.445 16.9739 118.435 16.9637C118.418 16.9464 118.298 16.7203 118.071 16.2785C118.019 16.1767 117.968 16.085 117.958 16.0748C117.948 16.0646 117.882 15.9396 117.812 15.797C117.741 15.6545 117.675 15.5295 117.664 15.5193C117.654 15.5091 117.602 15.4174 117.55 15.3156C117.401 15.0238 117.157 14.5619 117.04 14.3484C116.981 14.2409 116.932 14.1442 116.932 14.1335C116.932 14.1229 117.055 14.0534 117.206 13.9792C117.357 13.905 117.499 13.8212 117.522 13.7929C117.545 13.7647 117.584 13.7416 117.609 13.7416C117.708 13.7416 118.398 13.0003 118.398 12.8937C118.398 12.8711 118.415 12.8527 118.435 12.8527C118.455 12.8527 118.471 12.8261 118.471 12.7936C118.471 12.7611 118.498 12.6819 118.532 12.6177C118.565 12.5534 118.607 12.4709 118.625 12.4342C118.661 12.3598 118.713 12.1308 118.77 11.7972C118.814 11.5356 118.787 10.3146 118.736 10.2492C118.717 10.2247 118.689 10.1401 118.675 10.0612C118.661 9.98232 118.636 9.89066 118.62 9.85751C118.604 9.82436 118.537 9.68644 118.471 9.551C118.405 9.41556 118.312 9.25723 118.263 9.19916C117.998 8.88169 117.899 8.77933 117.858 8.77907C117.832 8.77892 117.812 8.76625 117.811 8.75099C117.811 8.73573 117.75 8.6817 117.674 8.63096C117.599 8.58022 117.529 8.52882 117.519 8.51674C117.48 8.47104 116.945 8.23027 116.824 8.20409C116.754 8.18909 116.671 8.16379 116.64 8.1479C116.462 8.0562 116.004 7.97421 115.411 7.92773C114.962 7.8925 114.598 7.89302 113.707 7.93002ZM125.251 7.91391C125.14 7.92184 125.016 7.94339 124.976 7.9618C124.936 7.98021 124.82 8.02509 124.719 8.06154C124.619 8.09802 124.514 8.14931 124.488 8.17553C124.461 8.20175 124.428 8.22323 124.413 8.22323C124.325 8.22323 123.979 8.64392 123.881 8.87136C123.846 8.95284 123.802 9.05283 123.784 9.09357C123.748 9.17394 123.653 9.497 123.603 9.70466C123.586 9.77596 123.546 9.92743 123.514 10.0412C123.481 10.1551 123.455 10.2761 123.455 10.3102C123.455 10.3444 123.439 10.4013 123.42 10.4366C123.401 10.472 123.367 10.5843 123.345 10.6861C123.24 11.1684 123.159 11.4897 123.124 11.5603C123.108 11.5929 123.083 11.6973 123.069 11.7922C123.055 11.8871 123.029 11.9739 123.011 11.985C122.993 11.9961 122.979 12.0616 122.979 12.1305C122.979 12.1994 122.964 12.2651 122.946 12.2765C122.927 12.2879 122.901 12.3805 122.887 12.4823C122.873 12.5842 122.847 12.6768 122.829 12.6882C122.81 12.6996 122.796 12.7569 122.796 12.8154C122.796 12.874 122.777 12.9689 122.754 13.0262C122.714 13.1286 122.694 13.2042 122.612 13.5749C122.59 13.6767 122.557 13.7934 122.54 13.8341C122.522 13.8749 122.499 13.9499 122.489 14.0008C122.462 14.1331 122.371 14.5006 122.301 14.76C122.221 15.0606 122.184 15.2077 122.136 15.4267C122.113 15.5285 122.085 15.6369 122.072 15.6674C122.051 15.7195 121.976 16.015 121.93 16.223C121.919 16.2739 121.9 16.3405 121.888 16.3711C121.877 16.4017 121.847 16.51 121.822 16.6118C121.736 16.9741 121.616 17.4277 121.588 17.5007C121.573 17.5414 121.518 17.7489 121.467 17.9619C121.383 18.3131 121.379 18.3568 121.43 18.4341C121.485 18.5189 121.488 18.5192 122.353 18.5192H123.222L123.296 18.417C123.337 18.3608 123.381 18.265 123.393 18.2041C123.479 17.7739 123.514 17.6328 123.538 17.6086C123.553 17.5934 123.565 17.5358 123.565 17.4807C123.565 17.4255 123.59 17.3095 123.62 17.2229C123.65 17.1363 123.675 17.0203 123.675 16.9652C123.675 16.91 123.687 16.8527 123.702 16.8377C123.717 16.8227 123.75 16.7158 123.776 16.6001C123.803 16.4843 123.839 16.323 123.858 16.2415C123.876 16.16 123.911 16.0017 123.935 15.8896C123.959 15.7776 123.995 15.6649 124.015 15.6393C124.043 15.6027 124.402 15.5947 125.667 15.6022L127.283 15.6119L127.31 15.7415C127.398 16.17 127.425 16.2862 127.449 16.3526C127.501 16.4945 127.596 16.9209 127.596 17.0139C127.596 17.0653 127.611 17.1166 127.629 17.1277C127.646 17.1388 127.672 17.2253 127.686 17.3199C127.7 17.4144 127.726 17.5271 127.742 17.5703C127.759 17.6135 127.8 17.7822 127.834 17.9451C127.893 18.236 127.973 18.437 128.051 18.4908C128.073 18.5058 128.472 18.5183 128.937 18.5186C129.732 18.5191 129.787 18.5148 129.849 18.4464C129.89 18.3997 129.906 18.3433 129.892 18.289C129.88 18.2424 129.848 18.1127 129.821 18.0007C129.793 17.8886 129.762 17.772 129.751 17.7414C129.712 17.6319 129.637 17.3131 129.62 17.1859C129.61 17.1146 129.59 17.0479 129.576 17.0377C129.554 17.0216 129.521 16.896 129.442 16.5192C129.432 16.4683 129.409 16.3933 129.391 16.3526C129.374 16.3118 129.341 16.1952 129.319 16.0933C129.237 15.7227 129.217 15.647 129.177 15.5446C129.154 15.4873 129.135 15.3996 129.135 15.3497C129.135 15.2998 129.119 15.2301 129.1 15.1947C129.081 15.1593 129.047 15.0471 129.025 14.9452C129.003 14.8434 128.969 14.7017 128.951 14.6304C128.932 14.5591 128.896 14.4091 128.87 14.2971C128.845 14.1851 128.813 14.0767 128.8 14.0564C128.788 14.036 128.765 13.9443 128.751 13.8527C128.736 13.761 128.711 13.6693 128.696 13.649C128.681 13.6286 128.659 13.5619 128.648 13.5008C128.62 13.3473 128.531 12.9887 128.456 12.7231C128.422 12.6009 128.38 12.4425 128.364 12.3712C128.348 12.2999 128.308 12.1416 128.275 12.0194C128.194 11.7191 128.158 11.5779 128.094 11.3157C128.064 11.1935 128.013 10.9935 127.981 10.8713C127.89 10.529 127.859 10.4067 127.805 10.1861C127.778 10.0741 127.746 9.95743 127.734 9.92688C127.722 9.89632 127.703 9.82966 127.692 9.77873C127.613 9.41601 127.578 9.27635 127.561 9.26023C127.55 9.25005 127.51 9.15098 127.473 9.04009C127.436 8.92917 127.367 8.77918 127.322 8.70677C127.212 8.53356 126.915 8.2332 126.825 8.20416C126.785 8.19153 126.753 8.16761 126.753 8.15098C126.753 8.13435 126.724 8.1119 126.689 8.10105C126.654 8.0902 126.538 8.04798 126.432 8.00724C126.232 7.93024 125.657 7.88484 125.251 7.91391ZM162.116 7.91613C161.985 7.92269 161.845 7.94239 161.805 7.95991C161.765 7.97743 161.608 8.02057 161.457 8.05576C161.078 8.14383 160.878 8.22949 160.504 8.4626C160.216 8.64207 160.136 8.7057 159.899 8.94543C159.531 9.31712 159.354 9.59511 159.105 10.1861C159.084 10.2371 159.053 10.3058 159.036 10.339C159.02 10.3721 158.995 10.4638 158.981 10.5427C158.967 10.6216 158.943 10.7028 158.927 10.7231C158.912 10.7435 158.89 10.8268 158.879 10.9083C158.868 10.9898 158.842 11.1481 158.823 11.2602C158.778 11.5152 158.776 14.9816 158.82 15.26C158.838 15.3721 158.864 15.5304 158.877 15.6119C158.89 15.6933 158.913 15.7767 158.928 15.797C158.944 15.8174 158.968 15.9048 158.982 15.9913C158.996 16.0777 159.023 16.1579 159.041 16.1694C159.06 16.1809 159.075 16.2138 159.075 16.2427C159.075 16.3728 159.439 17.0451 159.646 17.2963C159.846 17.5386 160.205 17.8743 160.393 17.9951C160.444 18.0278 160.494 18.0634 160.504 18.0742C160.514 18.0851 160.588 18.1271 160.669 18.1677C160.749 18.2082 160.824 18.2501 160.834 18.2607C160.886 18.3161 161.285 18.4604 161.493 18.4994C161.564 18.5127 161.655 18.5383 161.695 18.5565C161.859 18.6303 162.559 18.6567 163.505 18.6248C164.041 18.6067 164.538 18.5765 164.608 18.5578C164.679 18.5391 164.877 18.5075 165.048 18.4876C165.508 18.4341 165.679 18.3877 165.752 18.2964C165.813 18.2197 165.818 18.0593 165.818 15.703V13.1914L165.721 13.1147C165.63 13.0427 165.578 13.0379 164.887 13.0384C164.482 13.0387 164.114 13.0487 164.07 13.0606C164.024 13.0731 163.973 13.1304 163.951 13.1952C163.925 13.269 163.912 13.9347 163.912 15.1152C163.912 16.1091 163.899 16.9301 163.884 16.9397C163.869 16.9493 163.533 16.9693 163.138 16.984C162.443 17.0099 162.186 16.9896 161.951 16.8903C161.911 16.8732 161.853 16.8488 161.823 16.8359C161.623 16.751 161.247 16.4009 161.14 16.1994C161.103 16.1309 161.061 16.0748 161.045 16.0748C161.03 16.0748 161.017 16.0425 161.017 16.0029C161.017 15.9634 161.002 15.9215 160.983 15.9099C160.965 15.8983 160.938 15.8353 160.924 15.77C160.909 15.7048 160.885 15.6258 160.87 15.5946C160.854 15.5633 160.811 15.4128 160.774 15.26C160.712 15.0093 160.706 14.8164 160.706 13.2786C160.707 11.7614 160.714 11.5426 160.774 11.2787C160.811 11.1157 160.854 10.9568 160.869 10.9256C160.885 10.8944 160.909 10.8153 160.924 10.7497C160.938 10.6842 160.965 10.6306 160.983 10.6306C161.002 10.6306 161.017 10.603 161.017 10.5692C161.017 10.5355 161.058 10.4533 161.109 10.3865C161.159 10.3198 161.201 10.2515 161.201 10.2349C161.202 10.2183 161.28 10.1287 161.375 10.0358C161.568 9.84832 161.854 9.66763 161.96 9.66763C161.998 9.66763 162.049 9.64681 162.074 9.62133C162.164 9.53056 163.536 9.545 165.383 9.65618C165.818 9.68233 165.818 9.68378 165.818 8.92443C165.818 8.38441 165.81 8.30182 165.753 8.25205C165.635 8.14757 165.452 8.11224 164.425 7.99587C163.743 7.91861 162.751 7.88432 162.116 7.91613ZM93.5535 8.1005L93.4761 8.19994L93.4894 12.3874C93.5015 16.1703 93.5087 16.5945 93.564 16.7785C93.7225 17.3052 93.8593 17.5633 94.1373 17.8595C94.2675 17.9982 94.3953 18.1118 94.4213 18.1118C94.4472 18.1118 94.4685 18.125 94.4685 18.1412C94.4685 18.2178 95.211 18.5192 95.3998 18.5192C95.4439 18.5192 95.4955 18.5344 95.5147 18.5529C95.556 18.593 96.6344 18.6607 96.9237 18.6414C97.0346 18.6341 97.4139 18.6124 97.7666 18.5933C98.8127 18.5367 99.2368 18.4642 99.3079 18.3297C99.357 18.2371 99.3514 17.2465 99.3012 17.1352C99.2786 17.0851 99.225 17.0345 99.1821 17.0229C99.1392 17.0112 98.461 17.0014 97.675 17.001C96.7887 17.0006 96.1901 16.9854 96.0992 16.9611C95.7568 16.8695 95.5931 16.7347 95.473 16.4452C95.4071 16.2862 95.403 16.0896 95.3851 12.2177C95.3669 8.29071 95.364 8.15431 95.2965 8.07894C95.2296 8.00428 95.1933 8.00102 94.4288 8.00102H93.6309L93.5535 8.1005ZM132.064 8.0485C131.939 8.1449 131.92 8.25146 131.921 8.84114C131.922 9.36108 131.93 9.4373 131.992 9.51948L132.063 9.61207L133.375 9.63059L134.687 9.64911L134.696 14.0166C134.705 18.016 134.711 18.3897 134.766 18.4516C134.821 18.5131 134.899 18.5192 135.64 18.5192C136.381 18.5192 136.46 18.5131 136.532 18.45L136.611 18.3808V14.0057V9.63059L137.829 9.62852C138.672 9.62707 139.087 9.61278 139.176 9.58222L139.304 9.538L139.314 8.83784C139.324 8.18057 139.32 8.13353 139.252 8.06935C139.182 8.00391 139.031 8.00106 135.651 8.0022C132.934 8.00309 132.108 8.01376 132.064 8.0485ZM142.264 8.07302L142.181 8.14253V13.2564C142.181 18.0417 142.185 18.375 142.244 18.4447C142.304 18.5152 142.351 18.5192 143.138 18.5192H143.968L144.027 18.4279C144.081 18.345 144.087 17.8713 144.087 13.2664V8.1962L144.011 8.09861L143.935 8.00102L143.14 8.00224C142.418 8.00339 142.339 8.0098 142.264 8.07302ZM147.971 8.06557C147.826 8.13676 147.751 8.2009 147.751 8.25453C147.751 8.27468 147.731 8.29808 147.705 8.30656C147.669 8.31879 147.658 9.3679 147.65 13.3524C147.641 18.0025 147.645 18.388 147.702 18.451C147.757 18.5128 147.83 18.5192 148.487 18.5192C149.097 18.5192 149.221 18.5099 149.269 18.461C149.321 18.4088 149.327 18.0207 149.327 14.7434C149.327 10.8698 149.323 10.9591 149.488 11.0229C149.521 11.0357 149.557 11.0859 149.569 11.1346C149.582 11.1833 149.606 11.2231 149.624 11.2231C149.642 11.2231 149.657 11.2401 149.657 11.2609C149.657 11.2818 149.708 11.4109 149.771 11.548C150.001 12.0484 150.073 12.2068 150.117 12.3157C150.178 12.4665 150.326 12.7921 150.441 13.032C150.493 13.1409 150.536 13.2534 150.536 13.282C150.536 13.3107 150.553 13.3342 150.573 13.3342C150.593 13.3342 150.61 13.3526 150.61 13.3752C150.61 13.3977 150.657 13.5185 150.714 13.6437C150.907 14.0652 150.939 14.1415 150.939 14.1823C150.939 14.2047 150.956 14.223 150.976 14.223C150.996 14.223 151.013 14.2554 151.013 14.2949C151.013 14.3345 151.028 14.3763 151.047 14.3879C151.065 14.3995 151.091 14.4589 151.104 14.5197C151.118 14.5806 151.144 14.6304 151.162 14.6304C151.181 14.6304 151.196 14.6482 151.196 14.6698C151.196 14.6915 151.237 14.7994 151.287 14.9096C151.336 15.0198 151.388 15.152 151.401 15.2035C151.413 15.255 151.438 15.2971 151.456 15.2971C151.474 15.2971 151.489 15.3125 151.489 15.3314C151.489 15.3503 151.548 15.4961 151.621 15.6555C151.693 15.8148 151.778 16.0035 151.809 16.0748C151.84 16.1461 151.911 16.3044 151.966 16.4267C152.022 16.5489 152.111 16.7489 152.164 16.8711C152.218 16.9933 152.286 17.1375 152.315 17.1916C152.345 17.2457 152.369 17.3165 152.369 17.349C152.369 17.3815 152.384 17.4081 152.402 17.4081C152.421 17.4081 152.447 17.4579 152.46 17.5188C152.473 17.5796 152.499 17.639 152.518 17.6506C152.537 17.6622 152.552 17.7041 152.552 17.7436C152.552 17.7832 152.566 17.8155 152.584 17.8155C152.602 17.8155 152.628 17.8613 152.642 17.9173C152.656 17.9733 152.707 18.0722 152.756 18.1371C152.805 18.2019 152.845 18.2656 152.845 18.2786C152.845 18.3156 152.946 18.4081 152.986 18.4081C153.006 18.4081 153.029 18.4289 153.037 18.4544C153.049 18.4895 153.294 18.5033 154.057 18.5117C154.61 18.5177 155.095 18.5142 155.136 18.5038C155.252 18.4744 155.433 18.2904 155.467 18.1673C155.501 18.0461 155.535 8.36893 155.502 8.23157C155.491 8.1852 155.449 8.11439 155.409 8.07417C155.342 8.00643 155.286 8.00109 154.65 8.00224C154.032 8.00335 153.954 8.01054 153.88 8.07302L153.798 8.14253V11.9936C153.798 15.3744 153.791 15.8473 153.743 15.8659C153.69 15.8865 153.541 15.7608 153.541 15.6954C153.541 15.6777 153.492 15.5625 153.431 15.4393C153.371 15.3162 153.321 15.1921 153.321 15.1636C153.321 15.1352 153.308 15.1119 153.291 15.1119C153.274 15.1119 153.229 15.0202 153.191 14.9082C153.154 14.7962 153.11 14.7045 153.094 14.7045C153.078 14.7045 153.065 14.6862 153.065 14.6638C153.065 14.6197 152.979 14.4119 152.897 14.2544C152.868 14.2003 152.845 14.1294 152.845 14.097C152.845 14.0644 152.83 14.0378 152.811 14.0378C152.793 14.0378 152.767 13.988 152.753 13.9271C152.74 13.8663 152.714 13.807 152.696 13.7953C152.677 13.7837 152.662 13.7419 152.662 13.7023C152.662 13.6628 152.645 13.6305 152.625 13.6305C152.605 13.6305 152.588 13.6096 152.588 13.5842C152.588 13.5587 152.539 13.4379 152.479 13.3156C152.418 13.1934 152.369 13.0642 152.369 13.0286C152.369 12.993 152.352 12.9638 152.332 12.9638C152.312 12.9638 152.295 12.9468 152.295 12.926C152.295 12.9052 152.244 12.776 152.181 12.639C152.046 12.3452 151.936 12.1026 151.801 11.7972C151.747 11.675 151.671 11.5041 151.632 11.4176C151.594 11.331 151.531 11.1893 151.493 11.1028C151.455 11.0162 151.356 10.7999 151.273 10.622C151.19 10.4442 151.123 10.2911 151.123 10.2816C151.123 10.2723 151.057 10.1209 150.976 9.9454C150.895 9.76985 150.829 9.61052 150.829 9.59137C150.829 9.57219 150.813 9.55652 150.793 9.55652C150.773 9.55652 150.756 9.53267 150.756 9.50356C150.756 9.47441 150.707 9.34257 150.646 9.21053C150.586 9.0785 150.536 8.95373 150.536 8.93328C150.536 8.9128 150.524 8.89051 150.509 8.88369C150.471 8.8668 150.353 8.60374 150.353 8.53678C150.353 8.50693 150.337 8.48248 150.316 8.48248C150.296 8.48248 150.28 8.46134 150.28 8.43552C150.28 8.33804 150.089 8.10979 149.962 8.0565C149.758 7.97021 148.151 7.97754 147.971 8.06557ZM58.5721 9.68703C58.6018 9.75885 58.6424 9.89632 58.6623 9.99258C58.7478 10.4046 58.7723 10.5066 58.8095 10.6052C58.8312 10.6625 58.8489 10.7503 58.8489 10.8001C58.8489 10.85 58.8635 10.9198 58.8814 10.9551C58.8993 10.9905 58.9424 11.1528 58.9772 11.3157C59.012 11.4787 59.0633 11.6858 59.0912 11.776C59.1192 11.8662 59.1421 11.9954 59.1421 12.063C59.1421 12.1307 59.1554 12.1861 59.1717 12.1861C59.1881 12.1861 59.2198 12.2819 59.2423 12.399C59.2647 12.5162 59.3002 12.6786 59.3212 12.7601C59.3422 12.8416 59.3831 13.0166 59.4121 13.149C59.4412 13.2814 59.4991 13.5147 59.5408 13.6675C59.5826 13.8203 59.6171 13.9577 59.6176 13.973C59.6181 13.9883 59.0578 14.0008 58.3725 14.0008H57.1266V13.9172C57.1266 13.8713 57.1446 13.7754 57.1666 13.7043C57.2117 13.5587 57.2434 13.4311 57.3275 13.0564C57.3595 12.9138 57.4006 12.7388 57.4189 12.6675C57.4372 12.5962 57.4703 12.4546 57.4924 12.3527C57.5145 12.2509 57.5485 12.1386 57.5678 12.1032C57.5871 12.0679 57.6029 12.0039 57.6029 11.9612C57.6029 11.8768 57.7047 11.4358 57.7518 11.3157C57.7678 11.275 57.7913 11.175 57.8041 11.0935C57.8168 11.012 57.8416 10.8954 57.8592 10.8343C57.9189 10.6267 57.9687 10.4276 58.0446 10.0935C58.1598 9.58622 58.1774 9.55652 58.3626 9.55652C58.5059 9.55652 58.5223 9.56678 58.5721 9.68703ZM115.763 9.66044C116.464 9.85818 116.759 10.1622 116.883 10.812C116.944 11.1339 116.943 11.1678 116.881 11.5657C116.845 11.7948 116.804 11.9907 116.791 12.0009C116.778 12.0111 116.736 12.0816 116.698 12.1575C116.412 12.726 115.717 12.9201 114.184 12.8595L113.543 12.8342V11.2231V9.61207L113.891 9.58937C114.082 9.57693 114.519 9.57011 114.862 9.5743C115.368 9.58048 115.537 9.59659 115.763 9.66044ZM125.85 9.68615C125.868 9.74725 125.897 9.82618 125.915 9.86155C125.933 9.89692 125.947 9.96565 125.947 10.0143C125.947 10.0629 125.972 10.1736 126.002 10.2602C126.032 10.3468 126.057 10.4575 126.057 10.5061C126.057 10.5547 126.072 10.6235 126.091 10.6589C126.11 10.6942 126.153 10.8565 126.187 11.0194C126.22 11.1824 126.271 11.3895 126.299 11.4797C126.327 11.5699 126.35 11.688 126.35 11.742C126.35 11.7961 126.363 11.8528 126.378 11.8681C126.393 11.8833 126.425 11.9902 126.449 12.1057C126.473 12.2212 126.511 12.3907 126.533 12.4823C126.556 12.574 126.595 12.7407 126.621 12.8527C126.646 12.9647 126.676 13.0814 126.687 13.112C126.734 13.2449 126.827 13.6694 126.827 13.7569C126.827 13.8096 126.843 13.8527 126.863 13.8527C126.883 13.8527 126.9 13.886 126.9 13.9267C126.9 13.9994 126.875 14.0008 125.652 14.0008H124.403L124.429 13.8249C124.443 13.7281 124.466 13.624 124.481 13.5934C124.496 13.5629 124.52 13.4545 124.535 13.3527C124.55 13.2508 124.574 13.1508 124.59 13.1305C124.606 13.1101 124.628 13.0351 124.639 12.9638C124.672 12.7415 124.739 12.4666 124.776 12.3995C124.795 12.3642 124.811 12.2954 124.811 12.2468C124.811 12.1981 124.836 12.0875 124.866 12.0009C124.896 11.9143 124.921 11.7983 124.921 11.7431C124.921 11.688 124.933 11.6304 124.948 11.6152C124.964 11.6 124.996 11.493 125.019 11.3776C125.043 11.2621 125.08 11.1009 125.101 11.0194C125.121 10.938 125.163 10.763 125.192 10.6306C125.328 10.0253 125.379 9.83358 125.448 9.65689C125.485 9.56256 125.503 9.55448 125.653 9.5643C125.8 9.57393 125.821 9.58663 125.85 9.68615ZM56.2654 25.3382C56.1646 25.3526 55.8973 25.3657 55.6714 25.3675C55.2448 25.3709 54.75 25.4249 54.6069 25.4836L54.5243 25.5175L54.5337 28.7302L54.543 31.9429L54.6346 31.9689C54.9397 32.0557 55.3217 32.085 56.1923 32.0887C56.8468 32.0915 57.1682 32.0797 57.2033 32.0516C57.2317 32.029 57.3315 32.0003 57.4251 31.988C57.5188 31.9757 57.6868 31.9234 57.7984 31.8718C57.91 31.8202 58.0189 31.778 58.0403 31.778C58.0618 31.778 58.0793 31.7613 58.0793 31.7409C58.0793 31.7206 58.1041 31.7039 58.1343 31.7039C58.1645 31.7039 58.1896 31.6914 58.1901 31.6761C58.1906 31.6608 58.2712 31.5903 58.3694 31.5193C58.4675 31.4483 58.5826 31.3389 58.625 31.2763C58.6675 31.2137 58.7311 31.1301 58.7664 31.0906C58.8537 30.9929 59.0284 30.6219 59.057 30.4732C59.0698 30.4066 59.0924 30.3438 59.1071 30.3336C59.1592 30.2976 59.252 29.2634 59.252 28.7189C59.2519 28.1734 59.1641 27.2037 59.108 27.1307C59.0921 27.1099 59.0689 27.0384 59.0564 26.9718C59.0332 26.8482 58.8607 26.461 58.7941 26.3832C58.7739 26.3595 58.7216 26.2928 58.6779 26.2351C58.5343 26.0449 58.4561 25.9634 58.4171 25.9634C58.3959 25.9634 58.3731 25.9509 58.3664 25.9356C58.3432 25.8827 58.0122 25.6671 57.9543 25.6671C57.9223 25.6671 57.8961 25.6517 57.8961 25.633C57.8961 25.6142 57.8466 25.5879 57.7862 25.5745C57.7257 25.5611 57.6762 25.5347 57.6762 25.516C57.6762 25.4972 57.6309 25.4817 57.5755 25.4815C57.52 25.4813 57.3937 25.4563 57.2948 25.4259C57.1958 25.3956 57.0143 25.3708 56.8914 25.3708C56.7686 25.3708 56.6186 25.3576 56.5583 25.3414C56.498 25.3253 56.3662 25.3238 56.2654 25.3382ZM91.6651 25.3567C91.4506 25.3759 90.9871 25.4919 90.9871 25.5263C90.9871 25.5426 90.9608 25.556 90.9286 25.556C90.8603 25.556 90.6723 25.6576 90.569 25.7504C90.5293 25.7861 90.4463 25.8507 90.3847 25.8939C90.2745 25.9711 89.9962 26.2986 89.9481 26.4078C89.9346 26.4383 89.892 26.5133 89.8534 26.5744C89.8148 26.6356 89.7819 26.7106 89.7803 26.7411C89.7787 26.7717 89.7527 26.8444 89.7226 26.9027C89.6925 26.9611 89.6679 27.0394 89.6679 27.0769C89.6679 27.1143 89.6431 27.2409 89.6129 27.3582C89.5699 27.5249 89.5579 27.815 89.5579 28.6876C89.5579 29.646 89.5678 29.8504 89.6279 30.1335C89.7636 30.7736 89.8985 31.0392 90.2964 31.4501C90.4717 31.631 90.8367 31.8882 90.9212 31.8903C90.9474 31.8909 91.0008 31.9159 91.0399 31.9458C91.0791 31.9757 91.1541 32.0002 91.2067 32.0002C91.2593 32.0002 91.3187 32.0168 91.3388 32.0371C91.4699 32.1696 93.6786 32.0691 93.9151 31.9199C93.9914 31.8717 93.9921 31.8566 93.9921 30.285C93.9921 28.9596 93.9835 28.69 93.9397 28.6458C93.8994 28.605 93.7703 28.5929 93.3756 28.5929C92.9428 28.5929 92.8604 28.6019 92.8416 28.6515C92.8294 28.6837 92.8194 29.2319 92.8194 29.8697C92.8194 30.893 92.8126 31.032 92.7614 31.0518C92.7296 31.0642 92.4863 31.074 92.2209 31.0737C91.6102 31.073 91.4266 31.0141 91.1653 30.7349C91.0265 30.5866 90.9138 30.3836 90.9138 30.2817C90.9138 30.2491 90.9006 30.2225 90.8845 30.2225C90.803 30.2225 90.7489 29.6165 90.7489 28.704C90.7489 27.6141 90.7777 27.3972 90.9787 26.9722C91.0561 26.8083 91.2741 26.5559 91.3381 26.5559C91.3668 26.5559 91.3902 26.5427 91.3902 26.5266C91.3902 26.5104 91.4779 26.4671 91.5851 26.4303C91.7587 26.3706 91.8679 26.3658 92.5837 26.3856C93.0258 26.3979 93.4994 26.4177 93.6363 26.4296C93.9833 26.4598 93.9921 26.4486 93.9921 25.9722C93.9921 25.5459 93.9644 25.4855 93.7678 25.4831C93.7151 25.4824 93.5337 25.4585 93.3647 25.4299C93.063 25.3787 91.9529 25.331 91.6651 25.3567ZM145.039 25.3694C144.773 25.4077 144.648 25.469 144.471 25.6484C144.271 25.8525 144.18 26.0575 144.051 26.593C144.034 26.6643 143.994 26.8157 143.962 26.9295C143.93 27.0434 143.903 27.1644 143.903 27.1985C143.903 27.2327 143.888 27.2896 143.868 27.3249C143.849 27.3603 143.815 27.4726 143.793 27.5744C143.736 27.8353 143.664 28.1187 143.514 28.667C143.483 28.779 143.449 28.929 143.438 29.0003C143.427 29.0716 143.405 29.1466 143.389 29.167C143.374 29.1873 143.349 29.2834 143.335 29.3804C143.32 29.4774 143.294 29.5659 143.276 29.577C143.258 29.5881 143.244 29.6452 143.244 29.7037C143.244 29.7623 143.225 29.8572 143.202 29.9145C143.162 30.0169 143.142 30.0925 143.061 30.4632C143.038 30.5651 143.005 30.6817 142.988 30.7225C142.97 30.7632 142.948 30.8382 142.937 30.8891C142.882 31.1621 142.833 31.3602 142.806 31.4261C142.789 31.4669 142.754 31.5983 142.728 31.7182C142.682 31.9291 142.683 31.9383 142.764 32.0052C142.837 32.0642 142.914 32.0743 143.298 32.0743C143.723 32.0743 143.751 32.0696 143.843 31.9834C143.898 31.9321 143.94 31.8526 143.94 31.8005C143.94 31.7497 143.957 31.698 143.977 31.6854C143.997 31.6728 144.013 31.6204 144.013 31.5689C144.013 31.476 144.108 31.0495 144.16 30.9076C144.175 30.8669 144.207 30.7419 144.23 30.6299C144.3 30.294 144.316 30.2422 144.358 30.2138C144.38 30.1988 144.847 30.1863 145.396 30.186L146.394 30.1854L146.415 30.2873C146.427 30.3433 146.452 30.4274 146.471 30.4742C146.49 30.521 146.505 30.6052 146.505 30.6612C146.505 30.7173 146.52 30.779 146.538 30.7984C146.556 30.8177 146.588 30.9252 146.609 31.0373C146.63 31.1493 146.666 31.3159 146.689 31.4076C146.711 31.4993 146.748 31.6596 146.769 31.7639C146.827 32.0379 146.904 32.0743 147.429 32.0743C147.685 32.0743 147.886 32.0563 147.948 32.028C148.062 31.9757 148.062 31.9325 147.955 31.5372C147.875 31.2475 147.837 31.1002 147.777 30.8521C147.75 30.74 147.718 30.6234 147.708 30.5928C147.681 30.5172 147.599 30.1882 147.579 30.0743C147.57 30.0234 147.549 29.9484 147.532 29.9077C147.497 29.8236 147.362 29.3055 147.296 29.0003C147.272 28.8883 147.241 28.7716 147.229 28.741C147.216 28.7105 147.19 28.6105 147.17 28.5188C147.149 28.4272 147.114 28.2855 147.091 28.204C147.067 28.1225 147.028 27.9725 147.003 27.8707C146.978 27.7689 146.949 27.6605 146.938 27.63C146.899 27.5205 146.824 27.2016 146.807 27.0744C146.797 27.0031 146.777 26.9365 146.763 26.9263C146.739 26.9095 146.681 26.6778 146.627 26.3893C146.615 26.3282 146.594 26.2615 146.579 26.2411C146.564 26.2208 146.541 26.1569 146.527 26.0992C146.496 25.9668 146.339 25.7124 146.219 25.5983C146.168 25.5503 146.058 25.4815 145.975 25.4454C145.795 25.3674 145.321 25.3289 145.039 25.3694ZM73.8645 25.4478C73.8041 25.4833 73.8003 25.6788 73.8003 28.7234V31.9613L73.9084 32.0177C74.0453 32.0893 74.7277 32.0965 74.8738 32.028L74.9724 31.9817L74.9727 28.7392C74.9729 26.2663 74.9625 25.4862 74.929 25.4523C74.8739 25.3965 73.9581 25.3927 73.8645 25.4478ZM108.824 25.4333C108.764 25.4493 108.76 25.6374 108.76 28.7252C108.76 31.6116 108.767 32.0002 108.815 32.0002C108.845 32.0002 108.87 32.0169 108.87 32.0372C108.87 32.0598 109.036 32.0743 109.295 32.0743C109.631 32.0743 109.742 32.0609 109.827 32.0107L109.933 31.9472V28.7279C109.933 25.7053 109.929 25.5056 109.869 25.4594C109.823 25.4241 109.675 25.411 109.347 25.4133C109.095 25.415 108.86 25.424 108.824 25.4333ZM124.289 25.4478C124.234 25.4803 124.225 25.5447 124.225 25.9075C124.225 26.2043 124.238 26.3382 124.271 26.3593C124.296 26.3758 124.679 26.3976 125.123 26.4078L125.929 26.4263L125.938 29.1738L125.948 31.9214L126.054 31.9978C126.145 32.0635 126.215 32.0743 126.549 32.0743C126.894 32.0743 126.99 32.0566 127.12 31.9693C127.13 31.9626 127.146 30.7126 127.156 29.1917L127.175 26.4263L127.991 26.4078C128.664 26.3926 128.814 26.3794 128.843 26.3337C128.862 26.3032 128.878 26.0996 128.878 25.8813C128.879 25.5266 128.871 25.4804 128.808 25.4462C128.711 25.3938 124.378 25.3954 124.289 25.4478ZM162.32 25.4902C162.27 25.5626 162.263 25.8608 162.263 27.9785C162.263 29.5713 162.277 30.4605 162.303 30.6091C162.361 30.929 162.459 31.2965 162.487 31.2965C162.501 31.2965 162.521 31.3352 162.533 31.3824C162.581 31.5769 163.051 31.9333 163.33 31.9869C163.398 31.9999 163.472 32.0247 163.494 32.042C163.607 32.1311 164.975 32.1102 165.675 32.0087C165.969 31.9661 166.001 31.9204 166 31.5491C165.998 31.0644 166.074 31.0965 164.872 31.0728C164.314 31.0618 163.824 31.0378 163.784 31.0193C163.684 30.974 163.639 30.925 163.569 30.7873C163.515 30.6827 163.509 30.4049 163.509 28.1202C163.509 25.6049 163.508 25.5688 163.434 25.4889C163.364 25.4133 163.326 25.4078 162.868 25.4078C162.402 25.4078 162.374 25.412 162.32 25.4902ZM56.9983 26.4063C57.0386 26.4243 57.1211 26.45 57.1815 26.4633C57.242 26.4767 57.3439 26.528 57.4081 26.5773C57.4723 26.6267 57.5424 26.667 57.5638 26.667C57.5854 26.667 57.6029 26.6806 57.6029 26.6971C57.6029 26.7136 57.6326 26.7594 57.6689 26.7989C57.8209 26.9644 57.9507 27.2739 58.003 27.596C58.0546 27.9128 58.0544 29.5903 58.0028 29.8737C57.9234 30.3098 57.639 30.815 57.4728 30.815C57.4436 30.815 57.4197 30.8292 57.4197 30.8464C57.4197 30.8797 57.2413 30.9634 56.9983 31.0441C56.8458 31.0947 55.8789 31.11 55.7594 31.0636C55.702 31.0414 55.6974 30.864 55.6974 28.7064V26.3733L56.0608 26.3628C56.5402 26.3489 56.9078 26.3659 56.9983 26.4063ZM145.512 26.4874C145.534 26.5515 145.552 26.6404 145.552 26.6849C145.552 26.7294 145.565 26.7783 145.58 26.7935C145.595 26.8087 145.627 26.9156 145.651 27.0311C145.675 27.1466 145.713 27.3161 145.736 27.4078C145.758 27.4994 145.797 27.6689 145.821 27.7844C145.844 27.8999 145.876 28.0068 145.891 28.022C145.907 28.0372 145.919 28.0928 145.919 28.1454C145.92 28.198 145.944 28.3077 145.973 28.3892C146.002 28.4707 146.026 28.5901 146.027 28.6546C146.028 28.7191 146.043 28.7774 146.061 28.7843C146.079 28.791 146.105 28.8841 146.12 28.991L146.146 29.1855H145.369H144.592L144.612 29.0281C144.639 28.8114 144.723 28.4556 144.756 28.4226C144.771 28.4076 144.783 28.3523 144.784 28.2997C144.784 28.2471 144.819 28.079 144.861 27.9263C144.902 27.7735 144.96 27.5402 144.989 27.4078C145.018 27.2753 145.057 27.1087 145.075 27.0374C145.094 26.9661 145.127 26.8244 145.149 26.7226C145.211 26.4425 145.257 26.3708 145.372 26.3708C145.451 26.3708 145.48 26.3949 145.512 26.4874Z" fill="#6D6A6F"/>
</svg>
