<svg width="41" height="40" viewBox="0 0 41 40" fill="none" xmlns="http://www.w3.org/2000/svg">
<path d="M18.2499 33.0962C19.4894 30.7501 21.0973 29.1614 23.0737 28.33C25.0501 27.4988 26.7477 27.0833 28.1666 27.0833C28.7735 27.0833 29.3585 27.1308 29.9216 27.2258C30.4844 27.3211 31.0362 27.4466 31.577 27.6025C32.2756 26.6005 32.8541 25.4483 33.3124 24.1458C33.7708 22.8436 33.9999 21.4616 33.9999 20C33.9999 16.2777 32.7083 13.125 30.1249 10.5416C27.5416 7.95829 24.3888 6.66663 20.6666 6.66663C16.9444 6.66663 13.7916 7.95829 11.2083 10.5416C8.62492 13.125 7.33325 16.2777 7.33325 20C7.33325 21.3461 7.51964 22.6233 7.89242 23.8316C8.26547 25.04 8.79284 26.1516 9.4745 27.1666C10.5706 26.5791 11.6896 26.1405 12.8316 25.8508C13.9738 25.5613 15.1485 25.4166 16.3558 25.4166C17.1485 25.4166 17.9145 25.4823 18.6537 25.6137C19.3931 25.7451 20.0694 25.9037 20.6824 26.0895C20.2038 26.359 19.7573 26.6572 19.3428 26.9841C18.9284 27.3108 18.5299 27.6654 18.1474 28.0479C17.8783 27.9923 17.5881 27.9566 17.277 27.9408C16.9662 27.9247 16.6591 27.9166 16.3558 27.9166C15.4344 27.9166 14.5202 28.0245 13.6133 28.2404C12.7066 28.4562 11.8505 28.78 11.0449 29.2116C12.0085 30.2394 13.1058 31.0812 14.3366 31.737C15.5674 32.3932 16.8719 32.8462 18.2499 33.0962ZM20.6695 35.8333C18.4795 35.8333 16.421 35.4177 14.4941 34.5866C12.5671 33.7555 10.891 32.6276 9.46575 31.2029C8.04047 29.7782 6.912 28.1027 6.08034 26.1766C5.24895 24.2505 4.83325 22.1926 4.83325 20.0029C4.83325 17.8129 5.24881 15.7544 6.07992 13.8275C6.91103 11.9005 8.03895 10.2244 9.46367 8.79913C10.8884 7.37385 12.5638 6.24538 14.4899 5.41371C16.416 4.58232 18.4739 4.16663 20.6637 4.16663C22.8537 4.16663 24.9121 4.58218 26.8391 5.41329C28.766 6.2444 30.4421 7.37232 31.8674 8.79704C33.2927 10.2218 34.4212 11.8972 35.2528 13.8233C36.0842 15.7494 36.4999 17.8073 36.4999 19.997C36.4999 22.187 36.0844 24.2455 35.2533 26.1725C34.4221 28.0994 33.2942 29.7755 31.8695 31.2008C30.4448 32.6261 28.7694 33.7545 26.8433 34.5862C24.9171 35.4176 22.8592 35.8333 20.6695 35.8333ZM16.4999 22.0833C14.9958 22.0833 13.7169 21.5566 12.6633 20.5033C11.6099 19.4497 11.0833 18.1708 11.0833 16.6666C11.0833 15.1625 11.6099 13.8836 12.6633 12.83C13.7169 11.7766 14.9958 11.25 16.4999 11.25C18.0041 11.25 19.283 11.7766 20.3366 12.83C21.3899 13.8836 21.9166 15.1625 21.9166 16.6666C21.9166 18.1708 21.3899 19.4497 20.3366 20.5033C19.283 21.5566 18.0041 22.0833 16.4999 22.0833ZM16.4999 19.5833C17.3013 19.5833 17.9877 19.2975 18.5591 18.7258C19.1308 18.1544 19.4166 17.468 19.4166 16.6666C19.4166 15.8652 19.1308 15.1788 18.5591 14.6075C17.9877 14.0358 17.3013 13.75 16.4999 13.75C15.6985 13.75 15.0121 14.0358 14.4408 14.6075C13.8691 15.1788 13.5833 15.8652 13.5833 16.6666C13.5833 17.468 13.8691 18.1544 14.4408 18.7258C15.0121 19.2975 15.6985 19.5833 16.4999 19.5833ZM28.1666 24.0704C27.0269 24.0704 26.0635 23.6769 25.2766 22.89C24.4896 22.103 24.0962 21.1397 24.0962 20C24.0962 18.8602 24.4896 17.8969 25.2766 17.11C26.0635 16.323 27.0269 15.9295 28.1666 15.9295C29.3063 15.9295 30.2696 16.323 31.0566 17.11C31.8435 17.8969 32.237 18.8602 32.237 20C32.237 21.1397 31.8435 22.103 31.0566 22.89C30.2696 23.6769 29.3063 24.0704 28.1666 24.0704Z" fill="#1D252D"/>
</svg>
