<svg width="40" height="40" viewBox="0 0 40 40" fill="none" xmlns="http://www.w3.org/2000/svg">
<path d="M12.2759 27.9167H14.7755V17.0834H12.2759V27.9167ZM18.75 27.9167H21.25V12.0834H18.75V27.9167ZM25.2246 27.9167H27.7242V22.0834H25.2246V27.9167ZM8.84629 34.1667C8.00435 34.1667 7.29171 33.875 6.70837 33.2917C6.12504 32.7084 5.83337 31.9957 5.83337 31.1538V8.84629C5.83337 8.00435 6.12504 7.29171 6.70837 6.70837C7.29171 6.12504 8.00435 5.83337 8.84629 5.83337H31.1538C31.9957 5.83337 32.7084 6.12504 33.2917 6.70837C33.875 7.29171 34.1667 8.00435 34.1667 8.84629V31.1538C34.1667 31.9957 33.875 32.7084 33.2917 33.2917C32.7084 33.875 31.9957 34.1667 31.1538 34.1667H8.84629ZM8.84629 31.6667H31.1538C31.2821 31.6667 31.3996 31.6132 31.5063 31.5063C31.6132 31.3996 31.6667 31.2821 31.6667 31.1538V8.84629C31.6667 8.71796 31.6132 8.60046 31.5063 8.49379C31.3996 8.38685 31.2821 8.33337 31.1538 8.33337H8.84629C8.71796 8.33337 8.60046 8.38685 8.49379 8.49379C8.38685 8.60046 8.33337 8.71796 8.33337 8.84629V31.1538C8.33337 31.2821 8.38685 31.3996 8.49379 31.5063C8.60046 31.6132 8.71796 31.6667 8.84629 31.6667Z" fill="#1D252D"/>
</svg>
