<svg width="41" height="40" viewBox="0 0 41 40" fill="none" xmlns="http://www.w3.org/2000/svg">
<path d="M15.1282 34.1666H8.6665C7.97428 34.1666 7.38456 33.923 6.89734 33.4358C6.41011 32.9486 6.1665 32.3588 6.1665 31.6666V25.2049C7.30762 25.0661 8.28734 24.5917 9.10567 23.782C9.924 22.972 10.3332 21.9891 10.3332 20.8333C10.3332 19.6774 9.924 18.6945 9.10567 17.8845C8.28734 17.0748 7.30762 16.6005 6.1665 16.4616V9.99994C6.1665 9.30772 6.41011 8.718 6.89734 8.23077C7.38456 7.74355 7.97428 7.49994 8.6665 7.49994H15.3332C15.4829 6.44022 15.9471 5.56633 16.7257 4.87828C17.5046 4.19022 18.4293 3.84619 19.4998 3.84619C20.5704 3.84619 21.4951 4.19022 22.274 4.87828C23.0526 5.56633 23.5168 6.44022 23.6665 7.49994H30.3332C31.0254 7.49994 31.6151 7.74355 32.1023 8.23077C32.5896 8.718 32.8332 9.30772 32.8332 9.99994V16.6666C33.8929 16.8163 34.7668 17.2805 35.4548 18.0591C36.1429 18.838 36.4869 19.7627 36.4869 20.8333C36.4869 21.9038 36.1429 22.8286 35.4548 23.6074C34.7668 24.3861 33.8929 24.8502 32.8332 24.9999V31.6666C32.8332 32.3588 32.5896 32.9486 32.1023 33.4358C31.6151 33.923 31.0254 34.1666 30.3332 34.1666H23.8715C23.7221 32.9699 23.2339 31.9763 22.4069 31.1858C21.58 30.3952 20.6109 29.9999 19.4998 29.9999C18.3887 29.9999 17.4197 30.3952 16.5928 31.1858C15.7658 31.9763 15.2776 32.9699 15.1282 34.1666ZM8.6665 31.6666H13.1857C13.7562 30.1966 14.6575 29.1347 15.8894 28.4808C17.1211 27.8269 18.3246 27.4999 19.4998 27.4999C20.6751 27.4999 21.8786 27.8269 23.1103 28.4808C24.3422 29.1347 25.2434 30.1966 25.814 31.6666H30.3332V22.5962H32.3844C32.895 22.532 33.2897 22.3258 33.5686 21.9774C33.8475 21.6291 33.9869 21.2477 33.9869 20.8333C33.9869 20.4188 33.8475 20.0374 33.5686 19.6891C33.2897 19.3408 32.895 19.1345 32.3844 19.0704H30.3332V9.99994H21.2628V7.94869C21.1986 7.43814 20.9923 7.04341 20.644 6.76452C20.2957 6.48564 19.9143 6.34619 19.4998 6.34619C19.0854 6.34619 18.704 6.48564 18.3557 6.76452C18.0073 7.04341 17.8011 7.43814 17.7369 7.94869V9.99994H8.6665V14.5641C9.9315 15.0877 10.9422 15.9194 11.6986 17.0591C12.455 18.1991 12.8332 19.4572 12.8332 20.8333C12.8332 22.1922 12.455 23.4416 11.6986 24.5816C10.9422 25.7216 9.9315 26.5619 8.6665 27.1024V31.6666Z" fill="#1D252D"/>
</svg>
