<svg width="80" height="80" viewBox="0 0 80 80" fill="none" xmlns="http://www.w3.org/2000/svg">
<rect width="80" height="80" rx="8" fill="white"/>
<g clip-path="url(#clip0_116_17677)">
<path d="M35.1393 24.367C37.008 22.4572 39.6096 21.2728 42.4869 21.2728C46.3117 21.2728 49.6487 23.3647 51.4258 26.4702C52.9701 25.7934 54.6795 25.417 56.478 25.417C63.3765 25.417 68.9693 30.9504 68.9693 37.7759C68.9693 44.6022 63.3765 50.1357 56.478 50.1357C55.6361 50.1357 54.8132 50.0531 54.0175 49.8952C52.4526 52.6332 49.4705 54.4831 46.0476 54.4831C44.6147 54.4831 43.2594 54.1584 42.0527 53.5812C40.4663 57.2413 36.7703 59.8076 32.4626 59.8076C27.9766 59.8076 24.1534 57.0235 22.6859 53.1189C22.0446 53.2525 21.3801 53.3221 20.6984 53.3221C15.3573 53.3221 11.0273 49.0314 11.0273 43.7376C11.0273 40.1901 12.9728 37.0926 15.8633 35.4354C15.2682 34.0924 14.9372 32.61 14.9372 31.0516C14.9372 24.9636 19.9762 20.0285 26.1913 20.0285C29.8403 20.0285 33.0833 21.7302 35.1393 24.367Z" fill="#00A1E0"/>
<path d="M19.4193 40.6568C19.383 40.7499 19.4326 40.7693 19.4441 40.7855C19.5531 40.8632 19.6637 40.9191 19.7751 40.9814C20.3661 41.289 20.924 41.3789 21.5076 41.3789C22.6961 41.3789 23.434 40.7588 23.434 39.7606V39.7411C23.434 38.8182 22.6012 38.4831 21.8196 38.241L21.718 38.2086C21.1287 38.0208 20.6203 37.8589 20.6203 37.4784V37.4581C20.6203 37.1327 20.9174 36.8931 21.378 36.8931C21.8897 36.8931 22.4972 37.0598 22.8884 37.2719C22.8884 37.2719 23.0032 37.3448 23.0453 37.2355C23.0684 37.1772 23.2665 36.6542 23.2871 36.5976C23.3094 36.536 23.2698 36.4907 23.2293 36.4664C22.7828 36.2001 22.1654 36.0179 21.5266 36.0179L21.4077 36.0187C20.3198 36.0187 19.5605 36.6631 19.5605 37.5869V37.6063C19.5605 38.5802 20.3983 38.8959 21.1832 39.1162L21.3095 39.1542C21.8815 39.3266 22.3742 39.4748 22.3742 39.8699V39.8893C22.3742 40.2504 22.054 40.5191 21.5373 40.5191C21.3367 40.5191 20.697 40.5151 20.0062 40.0868C19.9228 40.0391 19.8741 40.0043 19.8098 39.9662C19.7759 39.9452 19.6909 39.9087 19.6538 40.0188L19.4193 40.6568Z" fill="white"/>
<path d="M36.8178 40.6568C36.7815 40.7499 36.831 40.7693 36.8425 40.7855C36.9515 40.8632 37.0621 40.9191 37.1735 40.9814C37.7645 41.289 38.3225 41.3789 38.906 41.3789C40.0946 41.3789 40.8325 40.7588 40.8325 39.7606V39.7411C40.8325 38.8182 39.9996 38.4831 39.218 38.241L39.1165 38.2086C38.5272 38.0208 38.0187 37.8589 38.0187 37.4784V37.4581C38.0187 37.1327 38.3159 36.8931 38.7764 36.8931C39.2882 36.8931 39.8956 37.0598 40.2869 37.2719C40.2869 37.2719 40.4016 37.3448 40.4437 37.2355C40.4668 37.1772 40.6649 36.6542 40.6855 36.5976C40.7078 36.536 40.6682 36.4907 40.6278 36.4664C40.1812 36.2001 39.5638 36.0179 38.925 36.0179L38.8061 36.0187C37.7183 36.0187 36.9589 36.6631 36.9589 37.5869V37.6063C36.9589 38.5802 37.7967 38.8959 38.5816 39.1162L38.7079 39.1542C39.2799 39.3266 39.7735 39.4748 39.7735 39.8699V39.8893C39.7735 40.2504 39.4524 40.5191 38.9357 40.5191C38.7352 40.5191 38.0955 40.5151 37.4046 40.0868C37.3213 40.0391 37.2717 40.0059 37.209 39.9662C37.1876 39.9524 37.0869 39.9144 37.0522 40.0188L36.8178 40.6568Z" fill="white"/>
<path d="M48.6998 38.7017C48.6998 39.266 48.5925 39.7104 48.3812 40.0246C48.1724 40.3354 47.8563 40.4868 47.4155 40.4868C46.9739 40.4868 46.6595 40.3362 46.4539 40.0246C46.2459 39.7113 46.1403 39.266 46.1403 38.7017C46.1403 38.1383 46.2459 37.6946 46.4539 37.3837C46.6595 37.0761 46.9739 36.9263 47.4155 36.9263C47.8563 36.9263 48.1724 37.0761 48.382 37.3837C48.5925 37.6946 48.6998 38.1383 48.6998 38.7017ZM49.6919 37.6557C49.5945 37.3327 49.4427 37.0478 49.2404 36.8106C49.0382 36.5725 48.7824 36.3815 48.4786 36.2422C48.1757 36.1038 47.8175 36.0334 47.4155 36.0334C47.0127 36.0334 46.6545 36.1038 46.3516 36.2422C46.0479 36.3815 45.792 36.5725 45.5889 36.8106C45.3875 37.0486 45.2357 37.3335 45.1375 37.6557C45.0409 37.9771 44.9922 38.3285 44.9922 38.7017C44.9922 39.0749 45.0409 39.4271 45.1375 39.7477C45.2357 40.0699 45.3867 40.3549 45.5898 40.5929C45.792 40.8309 46.0487 41.0211 46.3516 41.1563C46.6553 41.2915 47.0127 41.3604 47.4155 41.3604C47.8175 41.3604 48.1749 41.2915 48.4786 41.1563C48.7815 41.0211 49.0382 40.8309 49.2404 40.5929C49.4427 40.3557 49.5945 40.0707 49.6919 39.7477C49.7893 39.4263 49.838 39.0741 49.838 38.7017C49.838 38.3293 49.7893 37.9771 49.6919 37.6557Z" fill="white"/>
<path d="M57.8363 40.3357C57.8033 40.241 57.71 40.2766 57.71 40.2766C57.5656 40.3309 57.4121 40.3811 57.2487 40.4062C57.0828 40.4313 56.9003 40.4442 56.7047 40.4442C56.2244 40.4442 55.843 40.3042 55.5698 40.0273C55.2958 39.7504 55.1423 39.3027 55.1439 38.6972C55.1456 38.1458 55.2809 37.7313 55.5244 37.4156C55.7663 37.1015 56.1344 36.9404 56.6255 36.9404C57.0349 36.9404 57.3469 36.9865 57.6737 37.0877C57.6737 37.0877 57.7521 37.1209 57.7893 37.0205C57.876 36.7841 57.9403 36.6149 58.0328 36.3551C58.0592 36.2814 57.9948 36.2498 57.9717 36.2409C57.8429 36.1915 57.5392 36.1114 57.3097 36.0774C57.0951 36.045 56.8442 36.028 56.5652 36.028C56.1484 36.028 55.777 36.0976 55.4592 36.2369C55.1423 36.3753 54.8732 36.5664 54.6603 36.8044C54.4473 37.0424 54.2855 37.3274 54.1774 37.6496C54.0701 37.971 54.0156 38.324 54.0156 38.6972C54.0156 39.5043 54.2377 40.1568 54.6759 40.6345C55.115 41.1137 55.7745 41.3574 56.6346 41.3574C57.143 41.3574 57.6647 41.2562 58.0394 41.1113C58.0394 41.1113 58.1112 41.0773 58.0798 40.9955L57.8363 40.3357Z" fill="white"/>
<path d="M59.5721 38.1611C59.6192 37.8478 59.7075 37.5871 59.8437 37.3839C60.0492 37.0754 60.3629 36.9062 60.8036 36.9062C61.2444 36.9062 61.5357 37.0763 61.7445 37.3839C61.8832 37.5871 61.9435 37.8591 61.9674 38.1611H59.5721ZM62.9125 37.4721C62.8283 37.1604 62.6195 36.8455 62.4824 36.7014C62.2662 36.4731 62.0549 36.3136 61.8452 36.2246C61.5712 36.1096 61.2427 36.0335 60.8828 36.0335C60.4635 36.0335 60.083 36.1023 59.7744 36.2448C59.4648 36.3873 59.2048 36.5816 59.001 36.8237C58.7971 37.0649 58.6436 37.3523 58.5462 37.6786C58.448 38.0032 58.3984 38.357 58.3984 38.7302C58.3984 39.1099 58.4496 39.4637 58.5511 39.7818C58.6535 40.1024 58.8169 40.385 59.0381 40.6189C59.2585 40.8545 59.5424 41.0391 59.8825 41.1678C60.2201 41.2957 60.6303 41.3621 61.1016 41.3613C62.0714 41.3581 62.5823 41.146 62.7928 41.0318C62.8299 41.0116 62.8654 40.976 62.8208 40.874L62.6013 40.2708C62.5683 40.181 62.475 40.2142 62.475 40.2142C62.2348 40.3016 61.8931 40.4586 61.0966 40.457C60.5758 40.4562 60.1895 40.3056 59.9477 40.0701C59.6992 39.8288 59.5779 39.4742 59.5565 38.9739L62.9149 38.9771C62.9149 38.9771 63.0033 38.9755 63.0123 38.8913C63.0156 38.8557 63.1279 38.2145 62.9125 37.4721Z" fill="white"/>
<path d="M32.6776 38.1611C32.7255 37.8478 32.813 37.5871 32.9492 37.3839C33.1547 37.0754 33.4683 36.9062 33.9091 36.9062C34.3498 36.9062 34.6412 37.0763 34.8508 37.3839C34.9887 37.5871 35.0489 37.8591 35.0729 38.1611H32.6776ZM36.0171 37.4721C35.9329 37.1604 35.7249 36.8455 35.5879 36.7014C35.3717 36.4731 35.1604 36.3136 34.9507 36.2246C34.6767 36.1096 34.3482 36.0335 33.9883 36.0335C33.5698 36.0335 33.1885 36.1023 32.8798 36.2448C32.5703 36.3873 32.3103 36.5816 32.1064 36.8237C31.9026 37.0649 31.749 37.3523 31.6517 37.6786C31.5543 38.0032 31.5039 38.357 31.5039 38.7302C31.5039 39.1099 31.5551 39.4637 31.6566 39.7818C31.759 40.1024 31.9224 40.385 32.1436 40.6189C32.364 40.8545 32.6479 41.0391 32.9879 41.1678C33.3255 41.2957 33.7357 41.3621 34.207 41.3613C35.1769 41.3581 35.6878 41.146 35.8983 41.0318C35.9354 41.0116 35.9709 40.976 35.9263 40.874L35.7076 40.2708C35.6737 40.181 35.5805 40.2142 35.5805 40.2142C35.3403 40.3016 34.9994 40.4586 34.2013 40.457C33.6813 40.4562 33.295 40.3056 33.0532 40.0701C32.8047 39.8288 32.6834 39.4742 32.6619 38.9739L36.0204 38.9771C36.0204 38.9771 36.1087 38.9755 36.1178 38.8913C36.1211 38.8557 36.2334 38.2145 36.0171 37.4721Z" fill="white"/>
<path d="M25.4177 40.3176C25.2864 40.2148 25.2683 40.1889 25.2237 40.1225C25.1577 40.0213 25.1238 39.8772 25.1238 39.6943C25.1238 39.4044 25.2212 39.1964 25.4235 39.0563C25.421 39.0571 25.7123 38.8094 26.3974 38.8183C26.8786 38.8248 27.3086 38.8944 27.3086 38.8944V40.3921H27.3095C27.3095 40.3921 26.8827 40.482 26.4024 40.5103C25.7189 40.5508 25.4152 40.3168 25.4177 40.3176ZM26.754 38.0031C26.6178 37.9933 26.4412 37.9877 26.2299 37.9877C25.9418 37.9877 25.6636 38.0233 25.4028 38.0921C25.1403 38.1609 24.9043 38.2686 24.7012 38.4111C24.4974 38.5544 24.3331 38.7373 24.2143 38.9543C24.0954 39.1713 24.0352 39.4271 24.0352 39.7137C24.0352 40.0051 24.0863 40.2585 24.1887 40.4658C24.291 40.6738 24.4388 40.8471 24.627 40.9807C24.8135 41.1142 25.0438 41.2122 25.3112 41.2713C25.5745 41.3304 25.8733 41.3604 26.2001 41.3604C26.5443 41.3604 26.8877 41.3328 27.2203 41.277C27.5496 41.2219 27.9541 41.1418 28.0663 41.1167C28.1778 41.0908 28.3016 41.0576 28.3016 41.0576C28.3849 41.0373 28.3783 40.9499 28.3783 40.9499L28.3767 37.9375C28.3767 37.2769 28.1967 36.7871 27.8427 36.4835C27.4902 36.1807 26.971 36.0277 26.3 36.0277C26.0483 36.0277 25.643 36.0617 25.4003 36.1095C25.4003 36.1095 24.6666 36.2487 24.3645 36.4802C24.3645 36.4802 24.2985 36.5207 24.3348 36.6114L24.5725 37.238C24.6022 37.319 24.6823 37.2914 24.6823 37.2914C24.6823 37.2914 24.7078 37.2817 24.7376 37.2647C25.3838 36.9198 26.201 36.9304 26.201 36.9304C26.5641 36.9304 26.8431 37.0016 27.0313 37.1433C27.2145 37.2809 27.3078 37.489 27.3078 37.9278V38.067C27.0189 38.0265 26.754 38.0031 26.754 38.0031Z" fill="white"/>
<path d="M53.8393 36.3056C53.8648 36.2312 53.8112 36.1955 53.7889 36.1874C53.732 36.1656 53.4464 36.1065 53.226 36.0927C52.8042 36.0676 52.5698 36.1372 52.3602 36.2295C52.1522 36.3218 51.9211 36.4708 51.7923 36.64V36.2392C51.7923 36.1834 51.7519 36.1389 51.6957 36.1389H50.8349C50.7787 36.1389 50.7383 36.1834 50.7383 36.2392V41.1525C50.7383 41.2076 50.7845 41.2529 50.8406 41.2529H51.723C51.7791 41.2529 51.8245 41.2076 51.8245 41.1525V38.6979C51.8245 38.3684 51.8616 38.0397 51.9359 37.8333C52.0085 37.6293 52.1076 37.4657 52.2298 37.3484C52.3527 37.2318 52.4922 37.15 52.6449 37.1039C52.8009 37.0569 52.9734 37.0415 53.0956 37.0415C53.2714 37.0415 53.4645 37.0861 53.4645 37.0861C53.5289 37.0933 53.5652 37.0545 53.5867 36.997C53.6445 36.8464 53.8079 36.3955 53.8393 36.3056Z" fill="white"/>
<path d="M45.5608 34.0289C45.4535 33.9965 45.3561 33.9747 45.229 33.9512C45.1003 33.9285 44.9467 33.9172 44.7726 33.9172C44.1651 33.9172 43.6864 34.0856 43.3505 34.4175C43.0162 34.7478 42.7892 35.2506 42.6753 35.912L42.634 36.1346H41.8714C41.8714 36.1346 41.7789 36.1314 41.7591 36.2301L41.6345 36.9159C41.6254 36.9806 41.6543 37.0219 41.7434 37.0219H42.4855L41.7327 41.1443C41.6741 41.4762 41.6064 41.749 41.5313 41.9563C41.4578 42.1603 41.386 42.3133 41.2969 42.425C41.2111 42.5319 41.1302 42.6112 40.9899 42.6573C40.8743 42.6954 40.7406 42.7132 40.5945 42.7132C40.5136 42.7132 40.4055 42.7003 40.3254 42.6841C40.2462 42.6687 40.2041 42.6517 40.1438 42.6266C40.1438 42.6266 40.0572 42.5942 40.0225 42.6792C39.9953 42.7496 39.7972 43.2831 39.7732 43.3487C39.7501 43.4143 39.7831 43.4653 39.8252 43.4807C39.9243 43.5147 39.9977 43.5373 40.1323 43.5689C40.3188 43.6118 40.4765 43.6143 40.6242 43.6143C40.9329 43.6143 41.2152 43.5714 41.4488 43.4888C41.6832 43.4054 41.8879 43.2605 42.0695 43.0646C42.2651 42.8524 42.3881 42.6306 42.5053 42.327C42.6216 42.0275 42.7215 41.6551 42.8007 41.2212L43.5576 37.0219H44.6636C44.6636 37.0219 44.7569 37.0251 44.7759 36.9256L44.9014 36.2407C44.9096 36.1751 44.8815 36.1346 44.7916 36.1346H43.7178C43.7235 36.1111 43.7722 35.7404 43.8952 35.3914C43.948 35.2433 44.0471 35.1227 44.1304 35.0401C44.213 34.9591 44.3079 34.9016 44.4119 34.8684C44.5184 34.8344 44.6397 34.8183 44.7726 34.8183C44.8733 34.8183 44.9732 34.8296 45.0483 34.845C45.1523 34.8668 45.1927 34.8782 45.2199 34.8863C45.3297 34.9186 45.3446 34.8871 45.366 34.8353L45.6227 34.1439C45.6492 34.0694 45.5839 34.0378 45.5608 34.0289Z" fill="white"/>
<path d="M30.5556 41.1534C30.5556 41.2084 30.5151 41.2529 30.459 41.2529H29.5684C29.5123 41.2529 29.4727 41.2084 29.4727 41.1534V34.123C29.4727 34.068 29.5123 34.0234 29.5684 34.0234H30.459C30.5151 34.0234 30.5556 34.068 30.5556 34.123V41.1534Z" fill="white"/>
</g>
<defs>
<clipPath id="clip0_116_17677">
<rect width="58" height="40" fill="white" transform="translate(11 20)"/>
</clipPath>
</defs>
</svg>
