<svg width="58" height="40" viewBox="0 0 58 40" fill="none" xmlns="http://www.w3.org/2000/svg">
<g clip-path="url(#clip0_116_6594)">
<path d="M24.1408 4.36696C26.0094 2.45718 28.611 1.27277 31.4883 1.27277C35.3132 1.27277 38.6502 3.36471 40.4273 6.47023C41.9716 5.79343 43.6809 5.41697 45.4794 5.41697C52.378 5.41697 57.9708 10.9504 57.9708 17.7759C57.9708 24.6022 52.378 30.1357 45.4794 30.1357C44.6375 30.1357 43.8146 30.0531 43.019 29.8952C41.454 32.6332 38.4719 34.4831 35.049 34.4831C33.6162 34.4831 32.2609 34.1584 31.0542 33.5812C29.4678 37.2413 25.7717 39.8076 21.464 39.8076C16.9781 39.8076 13.1549 37.0235 11.6874 33.1189C11.046 33.2525 10.3816 33.3221 9.69984 33.3221C4.35878 33.3221 0.0288086 29.0314 0.0288086 23.7376C0.0288086 20.1901 1.97424 17.0926 4.86474 15.4354C4.26963 14.0924 3.93866 12.61 3.93866 11.0516C3.93866 4.96362 8.97763 0.0284576 15.1928 0.0284576C18.8418 0.0284576 22.0847 1.73018 24.1408 4.36696Z" fill="#00A1E0"/>
<path d="M8.4213 20.657C8.38498 20.7501 8.4345 20.7695 8.44606 20.7857C8.55501 20.8635 8.66561 20.9193 8.77704 20.9817C9.36801 21.2893 9.92597 21.3792 10.5095 21.3792C11.6981 21.3792 12.436 20.759 12.436 19.7608V19.7414C12.436 18.8185 11.6032 18.4833 10.8215 18.2412L10.72 18.2089C10.1307 18.021 9.62223 17.8591 9.62223 17.4786V17.4584C9.62223 17.1329 9.91937 16.8933 10.3799 16.8933C10.8917 16.8933 11.4992 17.0601 11.8904 17.2722C11.8904 17.2722 12.0051 17.345 12.0472 17.2358C12.0703 17.1775 12.2684 16.6545 12.289 16.5978C12.3113 16.5363 12.2717 16.491 12.2313 16.4667C11.7847 16.2003 11.1674 16.0182 10.5285 16.0182L10.4096 16.019C9.32179 16.019 8.56244 16.6634 8.56244 17.5871V17.6065C8.56244 18.5805 9.4002 18.8962 10.1851 19.1164L10.3114 19.1544C10.8834 19.3269 11.3762 19.475 11.3762 19.8701V19.8895C11.3762 20.2506 11.0559 20.5194 10.5392 20.5194C10.3387 20.5194 9.69899 20.5153 9.00815 20.0871C8.92478 20.0393 8.87608 20.0045 8.8117 19.9664C8.77786 19.9454 8.69285 19.909 8.65571 20.0191L8.4213 20.657Z" fill="white"/>
<path d="M25.8212 20.657C25.7849 20.7501 25.8344 20.7695 25.846 20.7857C25.9549 20.8635 26.0655 20.9193 26.1769 20.9817C26.7679 21.2893 27.3259 21.3792 27.9094 21.3792C29.098 21.3792 29.8359 20.759 29.8359 19.7608V19.7414C29.8359 18.8185 29.0031 18.4833 28.2214 18.2412L28.1199 18.2089C27.5306 18.021 27.0221 17.8591 27.0221 17.4786V17.4584C27.0221 17.1329 27.3193 16.8933 27.7798 16.8933C28.2916 16.8933 28.8991 17.0601 29.2903 17.2722C29.2903 17.2722 29.405 17.345 29.4471 17.2358C29.4702 17.1775 29.6683 16.6545 29.689 16.5978C29.7112 16.5363 29.6716 16.491 29.6312 16.4667C29.1846 16.2003 28.5673 16.0182 27.9284 16.0182L27.8096 16.019C26.7217 16.019 25.9623 16.6634 25.9623 17.5871V17.6065C25.9623 18.5805 26.8001 18.8962 27.585 19.1164L27.7113 19.1544C28.2833 19.3269 28.7769 19.475 28.7769 19.8701V19.8895C28.7769 20.2506 28.4558 20.5194 27.9391 20.5194C27.7386 20.5194 27.0989 20.5153 26.408 20.0871C26.3247 20.0393 26.2752 20.0061 26.2124 19.9664C26.191 19.9527 26.0903 19.9146 26.0556 20.0191L25.8212 20.657Z" fill="white"/>
<path d="M37.6993 18.7017C37.6993 19.266 37.592 19.7104 37.3807 20.0246C37.1719 20.3354 36.8558 20.4868 36.415 20.4868C35.9734 20.4868 35.659 20.3362 35.4535 20.0246C35.2455 19.7113 35.1398 19.266 35.1398 18.7017C35.1398 18.1383 35.2455 17.6946 35.4535 17.3837C35.659 17.0761 35.9734 16.9263 36.415 16.9263C36.8558 16.9263 37.1719 17.0761 37.3816 17.3837C37.592 17.6946 37.6993 18.1383 37.6993 18.7017ZM38.6914 17.6557C38.594 17.3327 38.4422 17.0478 38.24 16.8106C38.0377 16.5725 37.7819 16.3815 37.4781 16.2422C37.1752 16.1038 36.817 16.0334 36.415 16.0334C36.0122 16.0334 35.654 16.1038 35.3511 16.2422C35.0474 16.3815 34.7915 16.5725 34.5885 16.8106C34.3871 17.0486 34.2352 17.3335 34.137 17.6557C34.0404 17.9771 33.9917 18.3285 33.9917 18.7017C33.9917 19.0749 34.0404 19.4271 34.137 19.7477C34.2352 20.0699 34.3862 20.3549 34.5893 20.5929C34.7915 20.8309 35.0482 21.0211 35.3511 21.1563C35.6548 21.2915 36.0122 21.3604 36.415 21.3604C36.817 21.3604 37.1744 21.2915 37.4781 21.1563C37.781 21.0211 38.0377 20.8309 38.24 20.5929C38.4422 20.3557 38.594 20.0707 38.6914 19.7477C38.7888 19.4263 38.8375 19.0741 38.8375 18.7017C38.8375 18.3293 38.7888 17.9771 38.6914 17.6557Z" fill="white"/>
<path d="M46.8388 20.3362C46.8058 20.2415 46.7125 20.2771 46.7125 20.2771C46.568 20.3314 46.4145 20.3816 46.2511 20.4067C46.0852 20.4318 45.9028 20.4447 45.7072 20.4447C45.2268 20.4447 44.8455 20.3047 44.5723 20.0278C44.2982 19.7509 44.1447 19.3032 44.1464 18.6977C44.148 18.1463 44.2834 17.7318 44.5269 17.4161C44.7687 17.102 45.1368 16.9409 45.6279 16.9409C46.0373 16.9409 46.3493 16.987 46.6762 17.0882C46.6762 17.0882 46.7546 17.1214 46.7917 17.021C46.8784 16.7846 46.9428 16.6154 47.0352 16.3556C47.0616 16.2819 46.9972 16.2503 46.9741 16.2414C46.8454 16.192 46.5416 16.1119 46.3122 16.0779C46.0976 16.0455 45.8467 16.0285 45.5677 16.0285C45.1509 16.0285 44.7794 16.0981 44.4617 16.2374C44.1447 16.3758 43.8756 16.5669 43.6627 16.8049C43.4497 17.0429 43.288 17.3279 43.1798 17.6501C43.0725 17.9715 43.0181 18.3244 43.0181 18.6977C43.0181 19.5048 43.2401 20.1573 43.6784 20.635C44.1175 21.1142 44.777 21.3579 45.637 21.3579C46.1455 21.3579 46.6671 21.2567 47.0418 21.1118C47.0418 21.1118 47.1136 21.0778 47.0823 20.996L46.8388 20.3362Z" fill="white"/>
<path d="M48.5746 18.1613C48.6216 17.848 48.7099 17.5873 48.8461 17.3841C49.0516 17.0757 49.3653 16.9065 49.806 16.9065C50.2468 16.9065 50.5382 17.0765 50.747 17.3841C50.8857 17.5873 50.9459 17.8594 50.9698 18.1613H48.5746ZM51.9149 17.4724C51.8307 17.1607 51.6219 16.8458 51.4849 16.7017C51.2686 16.4734 51.0573 16.3139 50.8477 16.2248C50.5737 16.1099 50.2452 16.0338 49.8853 16.0338C49.466 16.0338 49.0855 16.1026 48.7768 16.2451C48.4673 16.3876 48.2073 16.5818 48.0034 16.8239C47.7995 17.0652 47.646 17.3526 47.5486 17.6788C47.4504 18.0035 47.4009 18.3572 47.4009 18.7305C47.4009 19.1101 47.4521 19.4639 47.5536 19.7821C47.6559 20.1027 47.8193 20.3852 48.0406 20.6192C48.2609 20.8548 48.5449 21.0394 48.8849 21.1681C49.2225 21.296 49.6327 21.3624 50.104 21.3616C51.0738 21.3583 51.5848 21.1462 51.7952 21.0321C51.8324 21.0118 51.8679 20.9762 51.8233 20.8742L51.6037 20.2711C51.5707 20.1812 51.4775 20.2144 51.4775 20.2144C51.2373 20.3018 50.8956 20.4589 50.0991 20.4573C49.5782 20.4565 49.192 20.3059 48.9501 20.0703C48.7017 19.829 48.5804 19.4745 48.5589 18.9741L51.9174 18.9774C51.9174 18.9774 52.0057 18.9758 52.0148 18.8916C52.0181 18.8559 52.1303 18.2148 51.9149 17.4724Z" fill="white"/>
<path d="M21.6781 18.1613C21.726 17.848 21.8135 17.5873 21.9496 17.3841C22.1552 17.0757 22.4688 16.9065 22.9096 16.9065C23.3503 16.9065 23.6417 17.0765 23.8513 17.3841C23.9892 17.5873 24.0494 17.8594 24.0734 18.1613H21.6781ZM25.0176 17.4724C24.9334 17.1607 24.7254 16.8458 24.5884 16.7017C24.3721 16.4734 24.1608 16.3139 23.9512 16.2248C23.6772 16.1099 23.3487 16.0338 22.9888 16.0338C22.5703 16.0338 22.189 16.1026 21.8803 16.2451C21.5708 16.3876 21.3108 16.5818 21.1069 16.8239C20.9031 17.0652 20.7495 17.3526 20.6521 17.6788C20.5547 18.0035 20.5044 18.3572 20.5044 18.7305C20.5044 19.1101 20.5556 19.4639 20.6571 19.7821C20.7594 20.1027 20.9229 20.3852 21.1441 20.6192C21.3644 20.8548 21.6484 21.0394 21.9884 21.1681C22.326 21.296 22.7362 21.3624 23.2075 21.3616C24.1774 21.3583 24.6883 21.1462 24.8987 21.0321C24.9359 21.0118 24.9714 20.9762 24.9268 20.8742L24.7081 20.2711C24.6742 20.1812 24.581 20.2144 24.581 20.2144C24.3408 20.3018 23.9999 20.4589 23.2018 20.4573C22.6818 20.4565 22.2955 20.3059 22.0536 20.0703C21.8052 19.829 21.6839 19.4745 21.6624 18.9741L25.0209 18.9774C25.0209 18.9774 25.1092 18.9758 25.1183 18.8916C25.1216 18.8559 25.2338 18.2148 25.0176 17.4724Z" fill="white"/>
<path d="M14.4187 20.3181C14.2874 20.2153 14.2693 20.1894 14.2247 20.123C14.1587 20.0218 14.1248 19.8777 14.1248 19.6947C14.1248 19.4049 14.2222 19.1969 14.4244 19.0568C14.422 19.0576 14.7133 18.8099 15.3984 18.8188C15.8796 18.8253 16.3096 18.8949 16.3096 18.8949V20.3926H16.3104C16.3104 20.3926 15.8837 20.4825 15.4033 20.5108C14.7199 20.5513 14.4162 20.3173 14.4187 20.3181ZM15.7549 18.0035C15.6188 17.9938 15.4421 17.9882 15.2308 17.9882C14.9428 17.9882 14.6646 18.0238 14.4038 18.0926C14.1413 18.1614 13.9053 18.2691 13.7022 18.4116C13.4983 18.5549 13.3341 18.7378 13.2152 18.9548C13.0964 19.1718 13.0361 19.4276 13.0361 19.7142C13.0361 20.0056 13.0873 20.259 13.1897 20.4663C13.292 20.6743 13.4397 20.8476 13.6279 20.9812C13.8145 21.1147 14.0448 21.2127 14.3122 21.2718C14.5755 21.3309 14.8743 21.3608 15.2011 21.3608C15.5453 21.3608 15.8887 21.3333 16.2213 21.2775C16.5506 21.2224 16.9551 21.1423 17.0673 21.1172C17.1787 21.0913 17.3025 21.0581 17.3025 21.0581C17.3859 21.0378 17.3793 20.9504 17.3793 20.9504L17.3777 17.938C17.3777 17.2774 17.1977 16.7876 16.8436 16.484C16.4912 16.1812 15.972 16.0282 15.301 16.0282C15.0492 16.0282 14.644 16.0622 14.4013 16.11C14.4013 16.11 13.6676 16.2492 13.3655 16.4807C13.3655 16.4807 13.2994 16.5212 13.3357 16.6119L13.5735 17.2385C13.6032 17.3195 13.6832 17.2919 13.6832 17.2919C13.6832 17.2919 13.7088 17.2822 13.7385 17.2652C14.3848 16.9203 15.2019 16.9309 15.2019 16.9309C15.5651 16.9309 15.8441 17.0021 16.0323 17.1438C16.2155 17.2814 16.3088 17.4895 16.3088 17.9283V18.0675C16.0199 18.027 15.7549 18.0035 15.7549 18.0035Z" fill="white"/>
<path d="M42.8427 16.3061C42.8683 16.2316 42.8146 16.196 42.7923 16.1879C42.7354 16.1661 42.4498 16.107 42.2294 16.0932C41.8076 16.0681 41.5732 16.1377 41.3636 16.23C41.1556 16.3223 40.9245 16.4713 40.7957 16.6405V16.2397C40.7957 16.1839 40.7553 16.1393 40.6991 16.1393H39.8383C39.7821 16.1393 39.7417 16.1839 39.7417 16.2397V21.153C39.7417 21.2081 39.7879 21.2534 39.844 21.2534H40.7264C40.7825 21.2534 40.8279 21.2081 40.8279 21.153V18.6984C40.8279 18.3689 40.865 18.0402 40.9393 17.8338C41.012 17.6298 41.111 17.4662 41.2332 17.3489C41.3562 17.2323 41.4956 17.1505 41.6483 17.1044C41.8043 17.0574 41.9768 17.042 42.099 17.042C42.2748 17.042 42.4679 17.0865 42.4679 17.0865C42.5323 17.0938 42.5686 17.055 42.5901 16.9975C42.6479 16.8469 42.8113 16.396 42.8427 16.3061Z" fill="white"/>
<path d="M34.5603 14.0292C34.453 13.9968 34.3557 13.9749 34.2285 13.9514C34.0998 13.9288 33.9463 13.9174 33.7721 13.9174C33.1646 13.9174 32.6859 14.0858 32.35 14.4178C32.0157 14.7481 31.7887 15.2508 31.6748 15.9122L31.6335 16.1349H30.8709C30.8709 16.1349 30.7784 16.1316 30.7586 16.2304L30.634 16.9161C30.6249 16.9809 30.6538 17.0222 30.7429 17.0222H31.485L30.7322 21.1445C30.6736 21.4764 30.6059 21.7492 30.5308 21.9565C30.4574 22.1605 30.3856 22.3135 30.2964 22.4252C30.2106 22.5321 30.1297 22.6114 29.9894 22.6576C29.8738 22.6956 29.7401 22.7134 29.594 22.7134C29.5131 22.7134 29.405 22.7005 29.3249 22.6843C29.2457 22.6689 29.2036 22.6519 29.1433 22.6268C29.1433 22.6268 29.0567 22.5944 29.022 22.6794C28.9948 22.7499 28.7967 23.2834 28.7727 23.349C28.7496 23.4145 28.7827 23.4655 28.8247 23.4809C28.9238 23.5149 28.9973 23.5376 29.1318 23.5692C29.3183 23.6121 29.476 23.6145 29.6237 23.6145C29.9324 23.6145 30.2147 23.5716 30.4483 23.489C30.6827 23.4056 30.8874 23.2607 31.069 23.0648C31.2646 22.8527 31.3876 22.6309 31.5048 22.3273C31.6212 22.0277 31.721 21.6553 31.8003 21.2214L32.5571 17.0222H33.6632C33.6632 17.0222 33.7564 17.0254 33.7754 16.9258L33.9009 16.2409C33.9091 16.1753 33.8811 16.1349 33.7911 16.1349H32.7173C32.723 16.1114 32.7717 15.7406 32.8947 15.3917C32.9475 15.2435 33.0466 15.1229 33.13 15.0403C33.2125 14.9594 33.3074 14.9019 33.4114 14.8687C33.5179 14.8347 33.6392 14.8185 33.7721 14.8185C33.8728 14.8185 33.9727 14.8298 34.0478 14.8452C34.1518 14.8671 34.1922 14.8784 34.2195 14.8865C34.3292 14.9189 34.3441 14.8873 34.3656 14.8355L34.6223 14.1441C34.6487 14.0696 34.5835 14.0381 34.5603 14.0292Z" fill="white"/>
<path d="M19.557 21.1534C19.557 21.2084 19.5166 21.2529 19.4605 21.2529H18.5699C18.5137 21.2529 18.4741 21.2084 18.4741 21.1534V14.123C18.4741 14.068 18.5137 14.0234 18.5699 14.0234H19.4605C19.5166 14.0234 19.557 14.068 19.557 14.123V21.1534Z" fill="white"/>
</g>
<defs>
<clipPath id="clip0_116_6594">
<rect width="58" height="40" fill="white"/>
</clipPath>
</defs>
</svg>
