<svg width="80" height="80" viewBox="0 0 80 80" fill="none" xmlns="http://www.w3.org/2000/svg">
<rect width="80" height="80" rx="8" fill="white"/>
<g clip-path="url(#clip0_116_17668)">
<path d="M56.0886 25.4256C56.0549 25.1854 55.8401 25.0527 55.6625 25.0381C55.4853 25.0236 51.7349 24.7516 51.7349 24.7516C51.7349 24.7516 49.1301 22.2209 48.8444 21.9408C48.5582 21.6608 47.9997 21.746 47.7829 21.8085C47.7508 21.8177 47.2137 21.98 46.3251 22.2489C45.4549 19.7987 43.9195 17.5469 41.218 17.5469C41.1435 17.5469 41.0667 17.55 40.9899 17.5542C40.2216 16.5599 39.2699 16.1279 38.4479 16.1279C32.155 16.1279 29.1485 23.8267 28.2058 27.7392C25.7606 28.4807 24.0234 29.0078 23.8015 29.0761C22.4366 29.495 22.3935 29.5372 22.2144 30.7958C22.0792 31.7487 18.5078 58.7782 18.5078 58.7782L46.3365 63.881L61.4152 60.6886C61.4152 60.6886 56.1219 25.6657 56.0886 25.4256ZM44.787 22.7146C44.0881 22.9263 43.2935 23.1669 42.4324 23.4277C42.4332 23.2655 42.4339 23.1055 42.4339 22.9309C42.4339 21.408 42.218 20.182 41.8714 19.2099C43.2634 19.381 44.1904 20.9308 44.787 22.7146ZM40.1448 19.5118C40.5317 20.4609 40.7833 21.8227 40.7833 23.6606C40.7833 23.7546 40.7825 23.8405 40.7817 23.9276C39.2503 24.3918 37.5863 24.8958 35.9184 25.4014C36.8549 21.8645 38.6102 20.1563 40.1448 19.5118ZM38.275 17.7798C38.5467 17.7798 38.8203 17.8699 39.0821 18.0464C37.0654 18.9751 34.9036 21.3144 33.9907 25.9857C32.6564 26.39 31.3522 26.7851 30.1465 27.1507C31.2158 23.5877 33.7551 17.7798 38.275 17.7798Z" fill="#95BF46"/>
<path d="M55.6643 25.0382C55.4871 25.0237 51.7366 24.7517 51.7366 24.7517C51.7366 24.7517 49.1319 22.221 48.8462 21.9409C48.7392 21.8366 48.5949 21.7833 48.444 21.7603L46.3398 63.8807L61.417 60.6887C61.417 60.6887 56.1237 25.6658 56.0904 25.4257C56.0567 25.1855 55.8419 25.0528 55.6643 25.0382Z" fill="#5E8E3E"/>
<path d="M41.2183 33.1917L39.3591 38.6041C39.3591 38.6041 37.7301 37.7532 35.7333 37.7532C32.806 37.7532 32.6586 39.5512 32.6586 40.0043C32.6586 42.4763 39.2431 43.4234 39.2431 49.2137C39.2431 53.7691 36.2907 56.7026 32.3097 56.7026C27.5327 56.7026 25.0898 53.7929 25.0898 53.7929L26.3689 49.6572C26.3689 49.6572 28.8799 51.767 30.999 51.767C32.3834 51.767 32.9467 50.7002 32.9467 49.9207C32.9467 46.696 27.5448 46.5522 27.5448 41.2537C27.5448 36.7942 30.8155 32.4785 37.4176 32.4785C39.9616 32.4785 41.2183 33.1917 41.2183 33.1917Z" fill="white"/>
</g>
<defs>
<clipPath id="clip0_116_17668">
<rect width="43" height="48" fill="white" transform="translate(18.5 16)"/>
</clipPath>
</defs>
</svg>
